<svg width="28" height="28" viewBox="0 0 28 28" fill="none" xmlns="http://www.w3.org/2000/svg">
<path d="M12.0425 25.4387C12.048 25.439 12.0536 25.4383 12.0588 25.4365C12.0641 25.4347 12.0689 25.4319 12.0731 25.4282C12.0917 25.4218 12.1055 25.4082 12.1235 25.4002C12.8129 25.0837 13.5022 24.7669 14.1913 24.45C14.8622 24.1406 15.5322 23.8295 16.2015 23.5167C16.2973 23.4717 16.365 23.4703 16.4518 23.5427C17.0037 24.0046 17.5617 24.4588 18.1156 24.9182C18.2915 25.0612 18.4512 25.2232 18.5916 25.4012C18.7517 25.6085 18.8369 25.8414 18.8359 26.1042C18.8347 26.3573 18.8317 26.6106 18.8384 26.8645C18.8414 26.972 18.7995 27.0084 18.6983 26.9984C18.6653 26.9952 18.6316 26.9984 18.5982 26.9984C15.6924 26.9984 12.7867 26.9984 9.88101 26.9984C9.60087 26.9984 9.63609 27.028 9.63349 26.7561C9.63129 26.536 9.63649 26.3159 9.63229 26.0958C9.62809 25.8813 9.69232 25.6896 9.80897 25.5129C10.0131 25.2021 10.2912 24.9626 10.5743 24.7297C11.2535 24.171 11.936 23.6164 12.6153 23.0587C12.6714 23.0129 12.7368 22.9759 12.7794 22.9076C12.765 22.8516 12.7102 22.8354 12.6696 22.8076C11.0052 21.645 9.31774 20.5125 7.66353 19.3323C6.49217 18.4965 5.315 17.6679 4.20186 16.7538C3.21358 15.9411 2.40098 14.9796 1.8279 13.8272C1.43511 13.0368 1.22301 12.1942 1.11856 11.3218C0.97329 10.1074 0.998503 8.88763 1.00751 7.66844C1.01031 7.26184 1.01251 6.85545 1.00871 6.44905C1.00871 6.353 1.03292 6.29037 1.11496 6.23415C2.0541 5.58852 3.06195 5.04903 4.12002 4.62557C4.15103 4.61316 4.18145 4.59935 4.22127 4.60956C4.26569 4.64958 4.24748 4.7054 4.24748 4.75483C4.24908 5.38113 4.24528 6.00764 4.25188 6.63394C4.25308 6.7606 4.20746 6.82103 4.0956 6.87165C3.76164 7.02293 3.44149 7.19881 3.12133 7.3783C3.03069 7.42933 2.98547 7.48355 2.98487 7.5944C2.97966 8.72695 2.96786 9.8599 3.04489 10.9909C3.08491 11.5825 3.14494 12.1734 3.30142 12.7479C3.51692 13.5351 3.91151 14.2332 4.37914 14.8967C4.97943 15.7494 5.737 16.4487 6.52778 17.1162C8.14857 18.4837 9.84319 19.7541 11.5502 21.0095C11.9688 21.3175 12.3906 21.6204 12.8124 21.9242C12.8707 21.9662 12.9217 22.0214 13.0045 22.0388C13.0662 21.9344 13.0095 21.8713 12.9355 21.8073C12.5125 21.4407 12.0903 21.0732 11.6691 20.7048C10.5733 19.7415 9.4576 18.7994 8.40589 17.7881C7.27194 16.6966 6.3481 15.4494 5.7374 13.9863C5.37723 13.1259 5.16792 12.2273 5.07928 11.2998C5.07368 11.2398 5.07748 11.1797 5.07688 11.1207C5.1209 11.1137 5.13351 11.1421 5.13891 11.1721C5.13891 8.38225 5.13891 5.58897 5.13891 2.79228C5.13891 4.62823 5.13891 6.46412 5.13891 8.29995C5.13891 8.95907 5.13471 9.61819 5.14131 10.2773C5.14351 10.4944 5.16012 10.7111 5.1269 10.9274C5.1199 10.973 5.12911 11.0225 5.07268 11.0435C5.01265 10.7341 5.02586 10.4202 5.02525 10.1086C5.02125 7.69725 5.02525 5.28629 5.01885 2.87452C5.01885 2.72584 5.07548 2.66401 5.19774 2.60979C5.96051 2.27202 6.75189 2.0197 7.55888 1.8116C8.93995 1.45563 10.3458 1.24012 11.7679 1.11847C12.9707 1.01622 14.1753 0.969193 15.3811 1.02162C17.5803 1.11726 19.7306 1.50585 21.8356 2.14736C22.3192 2.29464 22.7987 2.45431 23.2697 2.6388C23.423 2.69883 23.4246 2.69883 23.4246 2.86651C23.4246 5.29129 23.4322 7.71586 23.4222 10.1406C23.4174 11.2982 23.2671 12.437 22.8791 13.5367C22.4617 14.7189 21.825 15.7726 21.0328 16.7382C21.0234 16.7474 21.013 16.7555 21.0018 16.7624C20.9916 16.7658 20.9824 16.7717 20.9751 16.7796C20.9678 16.7875 20.9627 16.7972 20.9602 16.8077L20.962 16.8057C20.9007 16.8677 20.8363 16.9257 20.7957 17.0058C20.5366 17.3369 20.2424 17.6361 19.9353 17.9204C18.7607 19.0051 17.5465 20.0452 16.3385 21.0919C16.2737 21.1482 16.2003 21.1958 16.1518 21.2694C16.1487 21.2798 16.1427 21.289 16.1345 21.2961C16.1263 21.3032 16.1163 21.3078 16.1056 21.3095L16.108 21.3071C16.0302 21.3769 15.968 21.4647 15.8703 21.512H15.8715C15.8683 21.522 15.8624 21.5309 15.8544 21.5377C15.8464 21.5446 15.8367 21.5491 15.8263 21.5508L15.8289 21.5482C15.7489 21.6168 15.6888 21.7052 15.591 21.7531H15.592C15.5883 21.7625 15.5822 21.7708 15.5744 21.7773C15.5666 21.7838 15.5573 21.7882 15.5474 21.7901C15.5058 21.8293 15.4665 21.8708 15.4297 21.9145V21.9157C15.4625 21.998 15.4625 21.998 15.6014 21.9254C15.65 21.8781 15.6964 21.8279 15.7633 21.8053L15.7615 21.8067C15.8089 21.7575 15.8563 21.7082 15.9235 21.6854L15.9215 21.6872C15.9492 21.6428 15.9982 21.6272 16.0388 21.601C16.043 21.5914 16.0496 21.5831 16.0579 21.5767C16.0661 21.5703 16.0759 21.566 16.0862 21.5644L16.0828 21.5676C16.1312 21.515 16.1799 21.4623 16.2529 21.4431C16.6593 21.1696 17.0395 20.861 17.4305 20.5669C17.7906 20.2964 18.1454 20.0194 18.5034 19.7465C18.5556 19.7065 18.6116 19.6721 18.6661 19.6348C18.7281 19.6034 18.7897 19.5714 18.8273 19.5088L18.8361 19.5154L18.8269 19.5094C18.9154 19.481 18.9658 19.4041 19.0324 19.3481C19.3842 19.0645 19.7366 18.7808 20.0896 18.4971C21.0536 17.7187 22.0185 16.9405 22.9063 16.0737C23.3841 15.6089 23.8243 15.1071 24.223 14.573C24.7776 13.8266 25.0914 12.9746 25.2705 12.0696C25.4195 11.3154 25.4706 10.5512 25.4744 9.78407C25.4792 9.06372 25.4716 8.34497 25.476 7.62562C25.476 7.50376 25.4388 7.43293 25.3307 7.3735C24.9979 7.19081 24.664 7.01072 24.3206 6.84924C24.2406 6.81143 24.1963 6.77321 24.1971 6.67396C24.2022 6.00103 24.2006 5.32811 24.2013 4.65518C24.2029 4.64192 24.206 4.6289 24.2106 4.61636C24.2664 4.58435 24.3126 4.61856 24.361 4.63757C25.4189 5.05457 26.4084 5.59804 27.3479 6.23695C27.4259 6.29017 27.4445 6.3506 27.4445 6.43704C27.4445 6.88346 27.4445 7.32988 27.4509 7.77609C27.4639 8.66873 27.4761 9.56136 27.4309 10.4534C27.3875 11.3008 27.2764 12.1364 27.0045 12.9454C26.7342 13.7498 26.3154 14.4713 25.8011 15.1419C25.0858 16.0741 24.228 16.8581 23.2999 17.5708C21.9835 18.5809 20.6234 19.5298 19.2445 20.4522C16.8584 22.0474 14.4906 23.6698 12.1169 25.2836C12.0785 25.3096 12.0411 25.3378 12.0032 25.365C11.9864 25.3716 11.9723 25.3836 11.9632 25.3992L11.962 25.4004C11.947 25.4955 12.004 25.4479 12.0425 25.4387Z" fill="#D83D3D"/>
<path d="M5.07153 11.0449C5.08394 10.8648 5.14937 10.6865 5.09154 10.5046C5.07153 10.4394 5.07834 10.3726 5.07834 10.3063C5.07834 7.86156 5.07754 5.41684 5.07594 2.97219C5.07594 2.83712 5.09154 2.72667 5.23601 2.67725C5.27263 2.71987 5.24342 2.74448 5.2142 2.75728C5.10255 2.80711 5.25222 2.83392 5.22301 2.88635C5.17218 2.97719 5.1994 3.08224 5.1994 3.18109C5.19806 5.54584 5.19806 7.91058 5.1994 10.2753C5.1994 10.381 5.18339 10.4884 5.22761 10.5913C5.23315 10.6034 5.23615 10.6164 5.23643 10.6297C5.2367 10.643 5.23424 10.6562 5.22921 10.6685C5.10215 10.8686 5.15878 11.0753 5.19679 11.2826C5.2014 11.3076 5.19519 11.3344 5.19299 11.3827C5.12936 11.292 5.15297 11.1848 5.07734 11.1235C5.07734 11.1103 5.07553 11.0971 5.07473 11.0835C5.07799 11.0832 5.08112 11.082 5.08383 11.0802C5.08654 11.0783 5.08875 11.0758 5.09027 11.0729C5.09179 11.07 5.09258 11.0668 5.09255 11.0635C5.09253 11.0602 5.0917 11.057 5.09014 11.0541C5.08814 11.0489 5.08134 11.0469 5.07273 11.0469L5.07153 11.0449Z" fill="#E82228"/>
<path d="M15.6018 21.9248C15.5802 21.9489 15.5566 21.9713 15.5314 21.9916C15.5019 22.0116 15.4735 22.0618 15.4313 22.0242C15.3999 21.9956 15.4051 21.952 15.4293 21.9152C15.4835 21.9884 15.5458 21.8996 15.6018 21.9248Z" fill="#D83D3D"/>
<path d="M20.7957 17.0052C20.8039 16.8993 20.8711 16.8425 20.9619 16.8051C20.9287 16.8903 20.8681 16.9525 20.7957 17.0052Z" fill="#DF3E3B"/>
<path d="M19.0314 19.3489C18.9866 19.4329 18.9404 19.515 18.8259 19.5102C18.8791 19.4393 18.95 19.3837 19.0314 19.3489Z" fill="#D83D3D"/>
<path d="M18.8263 19.509C18.8275 19.6215 18.7431 19.6243 18.665 19.6351C18.7024 19.5755 18.7594 19.5309 18.8263 19.509Z" fill="#D83D3D"/>
<path d="M16.2519 21.4435C16.208 21.5001 16.149 21.5433 16.0818 21.568C16.1076 21.4849 16.1578 21.4341 16.2519 21.4435Z" fill="#D83D3D"/>
<path d="M15.9233 21.6852C15.8832 21.7414 15.8265 21.7838 15.7612 21.8064C15.7874 21.73 15.8315 21.675 15.9233 21.6852Z" fill="#D83D3D"/>
<path d="M15.763 21.805C15.7238 21.8619 15.6668 21.9041 15.6011 21.9251C15.6287 21.8501 15.6717 21.7948 15.763 21.805Z" fill="#D83D3D"/>
<path d="M16.0386 21.6008C16.0267 21.623 16.01 21.6422 15.9897 21.6571C15.9694 21.672 15.9461 21.6823 15.9214 21.6871C15.9334 21.6215 15.9758 21.597 16.0386 21.6008Z" fill="#D83D3D"/>
<path d="M12.0424 25.4386C12.0175 25.4724 11.9839 25.4951 11.9459 25.4694C11.9079 25.4438 11.9259 25.4172 11.9591 25.3988C11.9773 25.4318 12.0123 25.43 12.0424 25.4386Z" fill="#ECB7B3"/>
<path d="M5.07227 11.0449C5.10648 11.0553 5.10188 11.0677 5.07427 11.0815L5.07227 11.0449Z" fill="#D83D3D"/>
<path d="M20.9602 16.8077C20.9604 16.7963 20.9647 16.7854 20.9724 16.7771C20.98 16.7688 20.9905 16.7635 21.0018 16.7625C21.0016 16.7738 20.9972 16.7846 20.9896 16.7929C20.9819 16.8013 20.9715 16.8065 20.9602 16.8077Z" fill="#DF3E3B"/>
<path d="M16.105 21.3098C16.1073 21.299 16.113 21.2892 16.1214 21.282C16.1297 21.2748 16.1402 21.2705 16.1512 21.2698C16.1495 21.2808 16.1439 21.2909 16.1354 21.2983C16.127 21.3056 16.1162 21.3097 16.105 21.3098Z" fill="#D83D3D"/>
<path d="M15.8257 21.5499C15.8272 21.5391 15.8326 21.5291 15.841 21.522C15.8493 21.5148 15.8599 21.511 15.8709 21.5111C15.8692 21.5219 15.8638 21.5318 15.8555 21.5389C15.8472 21.546 15.8366 21.5499 15.8257 21.5499Z" fill="#D83D3D"/>
<path d="M16.0853 21.5648C16.0831 21.5757 16.0772 21.5853 16.0684 21.5921C16.0597 21.5988 16.0488 21.6021 16.0378 21.6014C16.0404 21.5908 16.0464 21.5814 16.0551 21.5747C16.0637 21.5681 16.0744 21.5646 16.0853 21.5648Z" fill="#D83D3D"/>
<path d="M15.5474 21.7901C15.5484 21.7794 15.5535 21.7695 15.5616 21.7624C15.5697 21.7553 15.5802 21.7517 15.591 21.7521C15.5895 21.7626 15.5842 21.7722 15.5762 21.7792C15.5682 21.7862 15.558 21.7901 15.5474 21.7901Z" fill="#D83D3D"/>
<path d="M11.9604 25.3976C11.9605 25.3926 11.9616 25.3877 11.9638 25.3832C11.9659 25.3787 11.9689 25.3747 11.9727 25.3714C11.9765 25.3682 11.9809 25.3658 11.9857 25.3644C11.9905 25.363 11.9955 25.3627 12.0005 25.3634C11.9997 25.3732 11.995 25.3823 11.9875 25.3887C11.98 25.3951 11.9703 25.3983 11.9604 25.3976Z" fill="#ECB7B3"/>
<path d="M12.1235 25.4003C12.1221 25.4054 12.1197 25.4103 12.1164 25.4145C12.1131 25.4188 12.109 25.4223 12.1043 25.4249C12.0996 25.4275 12.0944 25.4292 12.0891 25.4297C12.0838 25.4303 12.0784 25.4298 12.0732 25.4283C12.0746 25.4231 12.077 25.4182 12.0803 25.414C12.0836 25.4098 12.0877 25.4062 12.0924 25.4036C12.0971 25.401 12.1023 25.3994 12.1076 25.3988C12.1129 25.3982 12.1183 25.3987 12.1235 25.4003Z" fill="#ECB7B3"/>
<path d="M9.07591 16.8353C9.0709 16.7701 9.11813 16.7471 9.14774 16.7153C9.44148 16.3971 9.73423 16.0777 10.0326 15.7638C10.115 15.6772 10.1564 15.5921 10.1564 15.4664C10.1526 11.7683 10.1522 8.07006 10.1554 4.37187C10.1576 4.32287 10.1494 4.27396 10.1316 4.22827C10.1137 4.18259 10.0866 4.14112 10.0518 4.10654C9.76664 3.8076 9.48791 3.50285 9.20697 3.1999C9.15775 3.14668 9.10992 3.09205 9.0625 3.03982C9.09271 2.97439 9.14614 2.9986 9.18736 2.9988C11.0465 3.00161 12.9058 2.9988 14.7649 3.01381C15.3501 3.01821 15.9394 3.02982 16.5129 3.17089C17.5258 3.41981 18.318 3.97508 18.8298 4.89592C19.1378 5.44999 19.2554 6.05649 19.256 6.68439C19.2584 8.80995 19.2584 10.9356 19.256 13.0613C19.255 13.7816 19.096 14.462 18.7058 15.0769C18.4754 15.4453 18.1723 15.7629 17.8149 16.0101C17.1358 16.4781 16.3836 16.7323 15.5623 16.8025C14.7375 16.8731 13.9129 16.8665 13.0863 16.8561C11.827 16.8401 10.5674 16.8501 9.30782 16.8479C9.23058 16.8477 9.15114 16.8593 9.07591 16.8353Z" fill="#0D0402"/>
<path d="M23.3529 2.77625V3.07079C23.3529 5.42726 23.3529 7.78381 23.3529 10.1404C23.3529 10.207 23.3513 10.2735 23.3475 10.3405C23.3472 10.354 23.3417 10.3668 23.3322 10.3763C23.3226 10.3858 23.3097 10.3912 23.2963 10.3913C23.2562 10.3923 23.2392 10.3641 23.2362 10.3269C23.2344 10.3135 23.2354 10.2999 23.2392 10.2869C23.2953 10.1452 23.2715 9.99734 23.2715 9.85227C23.2729 7.58878 23.2735 5.32535 23.2733 3.06198C23.2737 2.96634 23.251 2.86189 23.3529 2.77625Z" fill="#E62426"/>
<path d="M15.68 13.9328C15.4399 14.229 15.1056 14.336 14.7462 14.3531C14.3144 14.3731 13.8812 14.3577 13.4486 14.3635C13.3485 14.3647 13.3189 14.3272 13.3251 14.2348C13.3303 14.1548 13.3251 14.0747 13.3251 13.9947C13.3251 11.2067 13.3251 8.41864 13.3251 5.63062C13.3251 5.3785 13.2781 5.3763 13.5674 5.3803C13.973 5.3859 14.3792 5.36309 14.7846 5.39491C14.856 5.40051 14.9321 5.39311 14.9965 5.43713C15.2542 5.52637 15.5074 5.62422 15.6874 5.84232C15.9188 6.12026 16.0608 6.42261 15.9386 6.79439C15.9228 7.15456 15.9326 7.51353 15.9322 7.87271C15.931 9.4963 15.931 11.12 15.9322 12.7439C15.9322 12.8425 15.9156 12.944 15.964 13.0378C16.0224 13.2859 15.9476 13.506 15.8195 13.7153C15.7747 13.789 15.7103 13.85 15.68 13.9328Z" fill="#D83D3D"/>
<path d="M15.9153 6.72282C16.0337 6.40886 15.8667 6.16254 15.721 5.91282C15.7146 5.90182 15.704 5.88681 15.6936 5.88521C15.5575 5.8642 15.5307 5.72073 15.4321 5.6533C15.3186 5.57586 15.1891 5.55325 15.0699 5.49922C15.0395 5.48562 15.0111 5.46941 14.998 5.43579C15.4901 5.50683 15.9135 5.91302 15.9967 6.39626C16.0174 6.52123 16.0273 6.64777 16.0261 6.77444C16.0261 8.84678 16.0261 10.9192 16.0261 12.9919C16.0261 13.3204 15.9645 13.628 15.7404 13.8837C15.7218 13.9019 15.7017 13.9186 15.6804 13.9335C15.6773 13.9039 15.6806 13.874 15.6902 13.8458C15.6998 13.8176 15.7153 13.7918 15.7358 13.7702C15.9159 13.5729 15.9759 13.3406 15.9559 13.0811C15.8943 12.9981 15.9173 12.901 15.9173 12.8106C15.9153 10.7812 15.9146 8.75193 15.9153 6.72282Z" fill="#DE2429"/>
<path d="M15.9153 6.72278C15.984 6.78881 15.9538 6.87365 15.9538 6.94989C15.9554 8.99328 15.9558 11.0367 15.955 13.0803C15.9117 13.0733 15.8795 13.054 15.8777 13.0052C15.8759 12.952 15.8753 12.8988 15.8753 12.8451C15.8753 10.8798 15.8757 8.91457 15.8765 6.94949C15.8765 6.87405 15.8461 6.78881 15.9153 6.72278Z" fill="#EB202B"/>
<path d="M13.4304 5.49662V14.2264H13.4104V5.48901L13.4304 5.49662Z" fill="#E52326"/>
</svg>
