<svg width="640" height="640" viewBox="0 0 640 640" fill="none" xmlns="http://www.w3.org/2000/svg">
<g clip-path="url(#clip0_151_290)">
<path d="M640 0H0V640H640V0Z" fill="#012169"/>
<mask id="mask0_151_290" style="mask-type:luminance" maskUnits="userSpaceOnUse" x="0" y="0" width="320" height="320">
<path d="M0 0H320V320H0V0Z" fill="white"/>
</mask>
<g mask="url(#mask0_151_290)">
<path d="M0 0L320 320ZM320 0L0 320Z" fill="black"/>
<path d="M0 0L320 320M320 0L0 320" stroke="white" stroke-width="64"/>
</g>
<mask id="mask1_151_290" style="mask-type:luminance" maskUnits="userSpaceOnUse" x="0" y="0" width="320" height="320">
<path d="M0 0V160H320V320L0 0ZM320 0H160V320H0L320 0Z" fill="white"/>
</mask>
<g mask="url(#mask1_151_290)">
<path d="M0 0L320 320ZM320 0L0 320Z" fill="black"/>
<path d="M0 0L320 320M320 0L0 320" stroke="#E4002B" stroke-width="42.6667"/>
</g>
<path d="M160 0V320ZM0 160H320Z" fill="black"/>
<path d="M160 0V320M0 160H320" stroke="white" stroke-width="106.667"/>
<path d="M160 0V320ZM0 160H320Z" fill="black"/>
<path d="M160 0V320M0 160H320" stroke="#E4002B" stroke-width="64"/>
<path d="M160 384L169.256 441.559L197.528 420.145L180.799 470.506L206.797 501.362L176.679 506.602L180.827 566.493L160 522.667L139.174 566.493L143.321 506.602L113.204 501.362L139.202 470.506L122.472 420.145L150.744 441.559L160 384Z" fill="white"/>
<path d="M480 487.619L484.408 515.028L497.871 504.831L489.904 528.812L502.284 543.505L487.943 546.001L489.918 574.52L480 553.65L470.083 574.52L472.058 546.001L457.716 543.505L470.096 528.812L462.13 504.831L475.593 515.028L480 487.619Z" fill="white"/>
<path d="M400 234.286L404.408 261.695L417.871 251.498L409.904 275.479L422.284 290.172L407.943 292.668L409.918 321.187L400 300.317L390.083 321.187L392.058 292.668L377.716 290.172L390.096 275.479L382.13 251.498L395.593 261.695L400 234.286Z" fill="white"/>
<path d="M480 60.9521L484.408 88.361L497.871 78.164L489.904 102.145L502.284 116.839L487.943 119.334L489.918 147.854L480 126.984L470.083 147.854L472.058 119.334L457.716 116.839L470.096 102.145L462.13 78.164L475.593 88.361L480 60.9521Z" fill="white"/>
<path d="M551.111 191.619L555.519 219.028L568.982 208.831L561.015 232.812L573.395 247.505L559.054 250.001L561.029 278.52L551.111 257.65L541.194 278.52L543.169 250.001L528.827 247.505L541.207 232.812L533.241 208.831L546.704 219.028L551.111 191.619Z" fill="white"/>
<path d="M512 320L515.483 337.078L524.681 338.426L517.636 350.329L519.837 368.24L512 358.519L504.163 368.24L506.364 350.329L499.319 338.426L508.517 337.078L512 320Z" fill="white"/>
</g>
<defs>
<clipPath id="clip0_151_290">
<rect width="640" height="640" fill="white"/>
</clipPath>
</defs>
</svg>
