<svg width="709" height="709" viewBox="0 0 709 709" fill="none" xmlns="http://www.w3.org/2000/svg">
<path d="M283.478 220.607C271.27 228.219 256.373 229.714 243.492 233.384C244.724 236.51 249.541 236.374 253.685 236.238C255.477 236.102 257.269 236.102 258.501 236.238C244.837 244.937 235.092 255.403 227.14 270.49C222.323 274.567 219.859 281.771 217.059 287.887C215.379 291.557 212.243 295.77 213.811 299.712C216.835 298.489 230.836 269.538 254.469 263.422C253.349 264.781 246.629 275.383 244.724 279.052C240.132 288.567 236.996 297.945 234.196 308.954C231.284 320.779 230.388 333.284 228.82 342.255C228.26 345.517 226.02 348.779 227.252 352.177C229.492 351.089 230.5 347.284 231.732 344.701C235.652 335.323 239.012 325.129 245.285 318.877C245.285 319.42 244.949 319.556 244.949 319.964C234.308 346.468 239.572 391.185 245.397 419.728C246.517 419.184 246.293 422.311 247.413 423.398C246.405 399.884 240.468 376.234 242.26 354.079C243.828 334.235 250.101 317.246 257.157 302.974C252.677 302.566 248.197 307.323 245.172 311.265C240.468 317.246 237.556 326.352 233.412 330.43C238.228 301.615 251.781 276.334 268.134 259.888C270.374 257.577 287.511 250.509 285.383 242.898C284.487 244.937 283.591 245.48 282.47 245.888C275.414 248.878 267.014 249.694 259.509 252.548C250.325 255.946 243.268 261.655 236.548 265.189C242.372 253.228 254.357 244.937 261.077 235.422C274.406 233.112 283.59 226.724 289.975 217.209C289.527 217.073 289.191 216.938 288.743 216.938C286.615 217.073 285.271 219.52 283.478 220.607Z" fill="url(#paint0_radial_151_16)"/>
<path d="M156.576 244.257C155.792 244.393 148.063 247.111 144.703 248.199C142.799 248.742 139.887 250.509 138.991 250.373C138.767 250.373 138.991 249.15 138.431 249.286C136.079 249.966 133.95 251.868 131.486 252.684C124.43 254.994 116.142 256.49 111.101 262.878C109.421 263.15 107.069 262.742 107.181 264.917C108.973 267.227 112.893 266.14 115.358 265.732C122.526 264.645 130.366 260.023 137.199 257.033C140.447 255.538 144.591 253.363 148.511 252.14C154.672 250.101 161.392 247.927 166.992 246.432C190.289 240.315 213.811 237.189 238.676 237.597C231.06 236.51 223.667 236.102 216.275 236.102C196.002 236.102 176.289 239.636 156.576 244.257Z" fill="url(#paint1_radial_151_16)"/>
<path d="M52.1865 274.295C52.2985 275.111 52.9706 275.111 53.1946 275.791C55.0987 274.295 57.8988 273.48 58.6828 270.897C58.1228 270.897 57.4508 270.762 56.8908 270.762C54.7627 270.762 52.8586 271.441 52.1865 274.295Z" fill="url(#paint2_radial_151_16)"/>
<path d="M91.9482 271.441C92.5083 271.441 92.5083 272.257 92.5083 273.072C94.7484 273.344 97.9966 273.752 99.2286 273.48C99.7886 271.034 102.589 270.898 102.925 268.179C101.917 267.364 100.685 267.092 99.3406 267.092C96.4285 266.956 93.2923 268.587 91.9482 271.441Z" fill="url(#paint3_radial_151_16)"/>
<path d="M79.292 276.47C80.4121 281.499 85.4523 279.732 89.3725 279.324C89.8205 277.557 88.5884 278.101 88.3644 277.286C89.0365 276.198 90.8286 276.198 90.3806 273.752C89.3725 272.8 88.2525 272.393 87.1324 272.393C84.1082 272.393 81.0841 274.839 79.292 276.47Z" fill="url(#paint4_radial_151_16)"/>
<path d="M68.5391 284.082C68.5391 285.713 69.6591 285.577 69.6591 287.208C71.3392 285.033 73.5793 286.528 74.3633 283.402C73.9153 282.723 73.2433 282.451 72.4593 282.451C71.0032 282.587 69.3231 283.402 68.5391 284.082Z" fill="url(#paint5_radial_151_16)"/>
<path d="M117.262 286.936C116.701 286.936 115.805 286.936 114.797 286.936C112.781 286.936 110.205 286.8 107.853 287.344C108.301 290.47 110.429 291.285 112.221 292.373C115.581 290.198 118.158 287.344 123.086 286.936C122.078 285.033 119.838 284.761 117.598 284.761C116.477 285.441 118.158 286.664 117.262 286.936Z" fill="url(#paint6_radial_151_16)"/>
<path d="M94.7485 292.372C95.8686 296.993 99.3408 296.314 102.253 297.129C103.373 294.683 105.725 293.324 106.733 290.741C106.173 290.741 105.613 290.605 105.053 290.605C101.245 290.605 98.7807 291.829 94.7485 292.372Z" fill="url(#paint7_radial_151_16)"/>
<path d="M122.19 292.372C121.742 292.372 121.742 292.916 121.294 293.052C121.406 294.547 121.518 295.906 121.63 297.401C124.878 301.751 128.91 298.761 132.046 298.489C140.335 298.081 148.623 300.799 156.576 302.023C172.369 304.469 185.921 308.003 200.034 313.44C207.09 316.158 214.147 319.148 221.203 320.644C192.866 305.557 160.944 292.372 124.094 292.372C123.31 292.372 122.75 292.372 122.19 292.372Z" fill="url(#paint8_radial_151_16)"/>
<path d="M215.043 344.701C215.043 345.381 214.483 345.517 214.707 346.332C227.587 371.885 228.035 415.379 231.396 446.64C234.196 425.165 232.516 390.642 227.251 365.769C225.795 358.973 220.643 344.565 215.827 344.565C215.603 344.565 215.379 344.565 215.043 344.701Z" fill="url(#paint9_radial_151_16)"/>
<path d="M333.321 45.2725C291.543 58.5926 253.573 80.3395 244.612 131.309C248.757 126.824 250.437 119.62 253.237 113.504C254.805 110.242 256.373 107.795 258.053 104.805C259.733 101.951 261.749 98.5526 261.973 96.242C263.653 92.0285 272.166 83.3298 277.094 80.0677C319.32 50.7093 365.915 46.6317 380.027 28.2827C377.563 34.6709 371.515 39.5639 366.699 44.3211C301.175 59.9517 275.974 122.882 272.39 130.086C283.254 121.387 317.192 44.7289 410.269 44.3211C421.918 44.3211 436.926 43.9133 447.903 36.166C440.958 48.2627 422.253 45.6803 411.837 54.515C429.422 49.6219 456.415 48.3987 474.336 42.826C467.728 50.1656 455.967 55.1946 445.887 60.9032C436.478 66.204 423.15 67.0195 411.389 69.1942C337.913 83.3298 318.76 132.26 319.768 135.658C326.601 129.406 339.593 100.32 394.812 83.4657C414.413 77.4853 435.246 78.3008 455.519 78.4367C492.705 78.7085 528.883 98.8245 566.181 86.9996C551.172 99.0963 537.956 103.446 518.354 110.378C441.855 86.7277 397.052 124.785 394.364 129.27C396.604 129.95 415.533 120.164 422.254 118.397C484.865 102.222 532.915 121.251 578.39 140.28C578.39 140.28 598.663 150.338 625.768 150.202C607.511 166.784 579.958 177.657 552.628 177.657C536.835 168.551 518.578 160.667 498.641 155.774C486.545 152.784 475.12 150.066 461.008 150.338C458.207 150.338 455.071 150.338 451.935 150.202C441.743 149.93 430.542 149.658 422.141 153.736C424.27 155.91 429.87 155.095 432.558 154.823C460.783 153.192 492.369 159.58 515.33 169.502C545.796 182.686 571.109 199.948 595.75 222.51C614.007 239.092 629.576 265.053 653.993 273.344C650.073 274.159 646.489 274.839 642.457 275.111C632.376 275.655 620.952 274.975 613.447 270.897C607.399 267.635 565.061 231.209 562.597 229.714C565.173 236.102 621.848 286.12 646.825 305.829C644.361 307.324 607.959 290.062 590.71 279.324C590.822 281.771 603.255 294.547 607.847 300.528C619.608 315.751 629.128 335.867 637.193 354.895C649.401 383.71 660.154 420.408 675.499 442.699C671.242 442.291 660.602 433.048 658.026 430.874C655.674 428.699 652.985 424.893 650.521 426.116C649.961 428.563 652.537 430.33 653.657 432.369C657.13 438.893 659.706 450.038 661.834 460.504C666.314 481.707 669.114 501.551 674.379 519.764C669.226 513.104 665.306 505.221 659.93 498.833C656.794 495.163 646.041 480.756 643.913 487.959C643.689 492.309 646.601 503.998 646.825 505.085C649.513 517.997 654.89 532.405 659.818 544.638C663.402 553.608 668.666 563.938 672.922 572.773C678.299 583.646 692.86 605.529 693.868 603.898C688.379 595.743 683.899 584.462 679.083 578.617C670.906 559.453 658.474 530.638 654.666 504.134C668.89 516.91 674.939 534.715 687.147 550.89C689.387 552.657 692.635 560.404 693.42 563.122C694.204 558.365 689.275 548.987 687.483 544.366C685.915 540.152 684.571 536.482 684.459 532.133C675.835 504.677 674.043 476.678 666.426 445.145C675.163 450.31 686.587 454.931 697.788 456.698C701.484 457.242 705.404 459.009 708.204 457.242C704.62 455.883 702.604 453.98 702.604 453.98C666.986 416.602 650.409 353.808 623.416 307.052C638.089 314.527 665.642 321.323 680.315 313.304C669.002 312.624 660.826 309.091 655.786 306.236C650.297 303.246 644.137 296.994 639.097 292.916C633.608 288.567 627.896 284.761 623.416 279.732C632.712 284.082 670.794 293.868 693.308 270.082C694.54 268.723 696.668 267.771 697.564 265.868C661.274 278.237 606.391 220.472 599.447 213.812C595.19 209.734 591.382 206.2 590.15 205.249C587.014 202.802 584.214 199.948 581.078 197.365C574.357 192.065 566.405 188.803 560.357 182.55C567.301 183.502 574.021 182.143 580.406 179.968C581.302 180.376 593.622 177.929 599.895 175.347C625.656 164.745 643.465 139.056 665.754 125.736C656.794 123.834 644.809 135.115 618.488 137.018C590.822 139.056 576.821 130.358 568.869 127.231C564.165 125.465 537.395 115.542 530.227 114.183C579.062 102.902 595.863 58.7285 595.863 58.7285C589.03 66.6118 585.11 68.9224 585.11 68.9224C575.365 75.0387 562.149 77.3494 551.172 78.8445C542.996 79.9318 525.411 76.6698 505.25 73.4077C486.657 70.4175 465.936 67.4273 448.463 67.835C458.879 62.5342 468.064 58.4566 477.024 51.9326C487.665 44.0493 498.081 32.4962 502.226 18.9043C489.345 34.6709 461.344 40.6513 448.239 43.3697C456.527 35.2146 464.256 29.6419 467.84 15.2345C443.871 38.3407 408.701 34.9427 376.219 41.3309C376.219 41.3309 391.564 24.7488 403.101 0.419408C402.876 0.419408 371.515 33.9913 333.321 45.2725Z" fill="url(#paint10_radial_151_16)"/>
<path d="M269.926 54.1073C274.742 46.4959 283.366 40.1077 284.934 30.8652C276.758 40.5155 265.669 47.4473 256.597 57.0976C247.525 66.8837 240.804 79.1164 233.748 90.3976C235.316 75.5825 245.508 67.0196 250.325 57.0976C233.748 67.8351 225.011 85.7764 223.219 88.6306C216.051 100.456 215.267 116.902 208.434 129.406C202.946 120.572 207.202 111.057 210.227 103.038C193.314 111.601 198.354 141.367 170.801 152.784C166.32 154.687 161.168 157.949 156.688 160.532C151.312 163.658 145.263 166.24 141.455 170.454C139.327 172.9 132.159 184.725 130.59 187.308C128.91 189.89 127.678 193.288 126.222 195.327C123.982 198.453 120.958 197.909 117.598 197.501C115.918 197.23 114.126 197.094 112.333 197.23C100.125 198.861 89.2603 211.909 72.6834 214.763C71.2273 215.035 69.7713 215.035 68.3152 214.899C66.9711 214.899 65.5151 214.763 64.171 215.035C58.0107 215.85 51.8503 218.841 46.5861 220.608C34.6014 224.685 27.0971 229.85 16.6805 236.102C10.7442 239.636 3.01581 245.073 0.999705 249.694C-2.80849 258.529 5.81596 266.82 9.73616 272.257C11.1922 284.761 16.4565 282.179 18.4726 281.771C21.7208 285.849 20.6007 290.062 21.1608 295.635C23.4009 316.294 29.5612 326.08 41.6578 332.876C44.794 341.031 43.7859 355.031 46.4741 364.002C49.6102 374.467 54.5385 385.477 59.1307 392.137C56.3306 380.992 53.6424 364.681 55.6585 354.351C57.2266 352.041 59.0187 348.099 59.1307 345.789C59.4668 346.74 59.8028 346.196 60.2508 345.653C60.4748 345.381 60.6988 344.973 60.9228 344.973C60.3628 359.38 63.947 372.021 67.8672 380.856C71.5634 389.147 74.6995 395.671 78.7317 402.059C80.9719 405.593 83.436 409.399 86.0121 410.622C86.2361 406.136 82.5399 404.505 82.4279 397.845C75.0355 377.322 73.5795 337.362 91.1644 328.255C93.8525 332.197 96.9887 338.993 101.581 336.41C105.837 346.604 110.877 355.575 112.333 369.71C115.134 370.39 114.91 368.079 116.254 367.128C121.294 378.137 126.222 389.283 128.686 404.098C129.358 404.37 129.918 404.234 130.366 404.098C130.926 403.962 131.262 403.69 131.935 404.37C135.631 424.485 136.527 437.398 135.855 454.659C131.823 456.155 122.638 466.756 121.518 468.115C119.838 469.067 107.965 486.6 100.461 495.299C95.7566 485.513 95.1966 467.436 96.0927 457.514C94.1886 459.145 92.3964 462.679 91.2764 465.669C84.892 482.523 84.8921 509.842 88.5882 525.881C78.9557 519.629 72.7954 488.639 75.7076 475.319C69.3232 480.076 66.4111 495.027 66.5231 506.173C66.7471 520.172 74.4755 526.832 75.7076 535.803C74.2515 554.424 65.6271 568.559 72.9074 587.316C75.8196 594.791 87.1322 604.714 87.2442 612.597C87.9162 610.966 87.6922 612.733 87.5802 614.364C87.5802 615.723 87.5802 617.082 88.3642 616.81C91.0524 612.869 92.0604 605.665 90.2683 598.597C94.7486 604.578 100.349 611.102 101.581 620.344C102.589 628.092 98.6688 634.48 99.4528 641.819C106.061 634.616 106.845 621.567 109.421 610.286C116.59 621.024 125.998 630.266 123.422 650.382C127.23 643.043 128.574 634.752 125.55 622.927C123.646 615.451 118.27 609.199 119.502 600.636C120.958 606.073 125.438 607.16 129.47 608.927C130.366 611.102 131.15 613.276 133.391 613.412C131.486 606.888 127.902 602.675 126.782 595.063C132.271 598.597 138.767 602.947 146.159 601.859C149.183 605.801 152.208 609.743 157.136 611.102C157.584 608.247 154.896 608.927 153.776 607.568C147.951 601.18 145.487 586.093 147.503 574.947C148.063 578.889 149.855 582.559 151.424 585.957C152.768 589.083 153.776 594.384 157.36 594.656C155.12 582.423 155.568 565.705 158.256 555.375C159.04 559.045 160.944 562.579 162.96 565.297C164.864 567.88 167.216 571.549 169.68 571.685C168.448 558.501 172.369 546.269 179.201 539.609C187.377 544.773 190.85 556.598 195.442 566.928C191.858 577.802 188.273 587.996 188.273 600.364C188.273 626.868 199.586 656.906 196.898 680.692C196.114 687.896 193.762 700.128 192.082 708.419C194.77 703.662 198.242 691.022 198.466 690.342C205.522 671.178 199.138 633.936 196.674 610.422C197.122 609.878 196.226 587.316 199.138 581.336C204.066 593.568 208.322 606.752 211.571 625.373C211.347 592.889 203.618 564.889 194.658 535.531C183.793 499.784 188.945 459.688 197.906 424.486C192.754 430.602 189.842 441.475 187.601 451.126C185.025 462.271 182.785 478.989 182.561 489.183C182.225 502.775 183.345 515.823 184.913 529.822C183.121 520.716 175.617 528.599 173.377 532.541C169.008 540.424 166.768 555.647 164.64 562.851C160.944 555.783 162.064 546.812 162.96 538.521C159.04 537.026 158.256 543.414 157.248 546.676C154.448 555.647 153.216 567.336 152.656 578.209C151.648 571.957 148.511 564.889 147.279 558.637C146.271 553.472 146.271 545.997 140.783 548.443C143.135 568.287 139.551 582.015 143.247 598.325C136.415 599.005 131.934 591.258 129.358 586.093C127.678 582.559 126.782 577.802 124.766 577.258C121.182 583.102 124.43 595.335 124.654 601.859C122.302 598.325 121.182 592.889 119.278 588.811C117.486 588.675 116.702 589.491 115.806 590.306C117.262 602.539 117.038 610.694 121.406 619.121C113.454 611.238 109.309 595.199 107.069 579.705C106.173 573.452 106.285 569.647 103.485 565.841C101.245 565.161 99.9008 566.792 98.6688 568.559C99.1168 572.501 99.9008 579.976 100.461 580.928C102.589 592.753 108.189 604.578 105.165 616.946C104.269 613.412 104.493 610.014 103.597 607.296C100.461 596.966 93.2925 594.656 88.3642 588.131C86.5721 585.821 86.9082 582.559 84.332 580.928C82.4279 587.316 87.1322 596.287 87.6922 603.49C79.5158 593.432 72.5714 566.52 80.0758 551.433C81.7559 552.521 84.7801 553.2 86.4601 552.385C95.5326 557.414 105.725 557.414 116.702 554.831C121.182 551.162 124.766 545.861 128.91 543.278C135.743 529.958 138.991 516.91 147.055 506.58C147.391 507.804 148.847 507.668 149.855 507.94C157.92 497.338 165.76 486.736 171.361 473.688C171.809 474.504 171.809 475.727 173.265 475.183C174.497 470.426 178.081 467.979 179.201 463.086C175.169 447.863 170.464 433.592 167.888 416.194C168.224 414.156 169.568 411.845 168 410.758C166.88 409.942 166.32 410.894 165.984 411.981C165.536 413.068 165.2 414.02 164.192 413.34C165.312 408.583 162.736 402.739 163.632 398.117C162.736 398.117 162.176 398.797 161.616 399.476C160.944 400.428 160.384 401.243 159.712 400.7C159.04 394.312 161.392 389.418 160.832 384.254C159.824 383.438 159.6 384.389 159.264 385.341C159.04 386.021 158.704 386.836 157.808 386.7C152.768 377.05 155.12 359.38 148.623 351.089C145.823 353.672 147.391 357.749 144.703 360.196C144.031 348.915 140.111 336.682 134.735 326.352C129.358 315.751 124.206 305.557 115.246 310.314C113.566 309.091 111.437 308.683 110.541 306.372C113.342 305.421 116.478 306.508 118.046 304.469C110.317 302.023 95.5326 303.382 87.9162 304.741C91.7244 310.586 102.253 306.78 106.845 311.537C101.021 318.469 93.2925 315.343 86.9082 315.207C87.3562 316.294 89.3723 318.061 88.9243 318.333C83.212 318.605 77.9477 318.333 74.3635 315.479C73.9155 313.576 72.1234 310.314 70.5553 312.081C69.7713 314.391 73.1314 316.294 73.3554 320.508C64.395 319.692 60.1388 313.576 54.4265 307.188C53.8664 310.178 56.2186 310.858 55.2105 312.624C49.6102 315.071 43.3379 313.576 39.7537 310.314C33.0334 304.062 32.2493 289.518 27.8811 280.955C26.761 293.052 32.1373 305.693 35.6095 316.158C26.089 311.945 26.761 293.188 22.8408 280.955C23.6249 280.004 24.2969 279.053 24.8569 277.965C18.2486 272.257 9.28813 269.81 6.824 257.985C19.5927 242.219 42.2178 225.093 64.395 220.064C69.8833 218.841 74.2515 219.113 78.5077 219.384C81.8679 219.656 85.1161 219.792 88.5882 219.248C99.1168 210.414 112.781 202.395 125.998 201.307C130.926 200.899 135.631 201.715 138.879 198.861C143.807 194.647 145.711 180.376 150.751 175.347C173.601 152.512 207.202 150.61 213.251 142.454C223.667 128.319 228.26 95.9703 229.716 93.3878C228.596 102.087 227.251 116.358 231.62 122.067C234.196 93.9315 248.197 70.6894 263.541 55.6024C259.061 64.0294 251.781 78.029 252.789 88.9025C262.869 73.9515 272.95 59.0004 289.751 50.8453C290.759 50.0298 289.975 49.7579 290.535 49.0783C302.071 43.9134 315.064 36.8457 327.945 31.6808C316.072 46.9036 300.167 50.7094 288.519 60.0877C292.439 59.0004 299.607 56.9616 305.656 53.9714C316.632 48.6706 327.049 40.9232 333.769 31.5448C336.457 27.875 338.025 23.1179 340.601 19.4481C343.401 15.3705 347.434 12.1085 348.218 6.12804C330.073 29.9138 292.887 34.8069 269.926 54.1073ZM201.714 120.843C204.738 127.639 205.298 138.377 200.034 142.862C202.05 137.018 201.602 128.727 201.714 120.843ZM77.9477 322.411C82.2039 323.226 85.5641 325.401 91.0524 324.313C89.2603 328.119 83.548 325.265 80.9719 328.527C81.8679 325.673 78.6197 324.993 77.9477 322.411ZM101.805 323.362C111.101 322.275 120.174 324.042 123.534 333.148C123.198 334.1 121.63 333.964 120.958 334.507C121.182 333.284 122.078 331.653 121.182 330.702C118.382 330.974 117.038 332.876 115.134 334.1C110.877 328.663 105.165 321.867 99.1168 329.75C97.4367 326.624 93.2925 325.809 91.6124 324.449C95.4206 323.226 99.1168 322.682 101.469 324.585C102.141 324.178 100.909 323.498 101.805 323.362ZM50.7303 332.197C54.9865 328.255 61.4829 330.702 64.619 324.857C70.8913 326.76 72.4594 326.08 79.7398 329.342C71.8994 340.76 69.3232 364.545 74.4755 384.39C70.8913 379.225 66.7471 367.264 65.403 355.847C64.059 345.245 65.7391 336.546 65.8511 329.071C62.8269 330.158 63.1629 334.779 62.3789 338.177C60.4748 337.498 59.6907 338.585 56.5546 338.721C56.2186 335.731 56.2186 332.061 53.4184 332.469C52.6344 335.187 52.0744 341.439 54.0905 342.798C53.0824 350.682 50.9543 359.516 50.7303 366.584C47.7061 357.206 44.682 337.905 50.7303 332.197ZM156.352 452.485C157.472 452.892 160.16 452.757 159.152 454.388C160.048 454.659 160.384 454.116 160.608 453.708C160.832 453.3 161.056 452.892 161.728 453.028C161.056 458.193 154.784 461.999 152.88 467.572C134.623 483.066 127.006 507.396 126.11 509.978C124.542 514.735 120.51 522.619 117.598 530.502C110.765 525.473 107.293 515.551 103.373 506.308C112.446 488.503 122.414 469.203 138.879 460.776C135.183 466.348 128.798 470.426 127.118 479.397C135.295 470.698 144.143 458.601 156.352 452.485ZM96.8767 535.803C90.0443 522.755 87.2442 496.658 91.2764 479.668C93.2925 503.454 102.253 520.58 110.205 533.9C107.517 535.667 104.381 537.026 101.357 537.026C99.9008 537.026 98.3327 536.754 96.8767 535.803ZM71.7874 490.95C75.0355 505.901 78.2837 520.852 85.2281 530.502C72.0114 529.958 69.0992 505.901 71.7874 490.95ZM85.004 539.744C87.4682 538.249 90.0443 541.647 92.7325 541.647C91.8364 542.055 90.9404 542.191 90.1563 542.191C88.0282 542.191 86.0121 541.24 85.004 539.744Z" fill="url(#paint11_radial_151_16)"/>
<path d="M210.786 169.638C210.786 169.638 209.554 169.503 208.546 169.774C197.01 173.036 145.823 202.938 124.878 220.2C109.869 218.297 95.4204 224.414 84.2198 230.802C81.5317 232.297 78.5075 233.248 76.9395 235.831C77.3875 237.734 79.0676 237.598 80.8597 237.598C81.9797 237.598 82.9878 237.462 83.7718 237.87C94.0763 230.258 107.517 221.559 122.302 223.054C121.07 223.598 99.1166 239.772 109.421 245.073C110.765 244.53 110.877 242.899 112.893 243.034C118.158 234.336 124.878 227.268 133.502 221.831C143.135 208.919 157.248 200.628 170.464 191.385C168.448 195.463 165.424 198.317 163.632 202.395C164.416 206.201 166.992 207.424 168.224 210.686C167.216 213.268 167.104 216.666 166.544 219.521C163.296 218.297 156.688 215.851 154.223 217.482C154.335 220.2 157.92 220.2 158.816 219.792C165.424 222.375 170.016 224.55 177.297 227.812C179.537 222.783 184.577 220.064 190.065 217.754C197.346 214.763 205.186 215.715 212.914 216.53C212.13 212.996 208.77 213.404 205.97 212.861C199.81 209.87 188.385 207.152 178.081 206.336C176.737 204.162 173.488 204.57 172.032 202.531C169.344 195.463 176.961 189.754 178.529 185.541C188.049 179.289 197.346 175.755 207.202 171.269C209.89 170.046 213.251 169.638 215.379 166.648C213.475 167.328 211.682 167.871 210.786 169.638ZM174.497 210.822C174.16 211.501 174.048 212.317 174.272 213.54C173.712 213.54 173.04 213.676 172.48 213.676C172.256 211.773 172.928 210.822 174.497 210.822ZM180.993 212.317C183.793 213.812 188.721 212.453 190.625 215.171C184.801 215.987 179.201 219.113 174.608 223.326C172.48 223.19 171.472 221.559 169.568 221.152C169.344 218.705 170.016 217.346 170.576 215.579C171.584 217.346 173.6 218.161 175.505 218.161C178.193 218.161 180.993 216.258 180.993 212.317Z" fill="url(#paint12_radial_151_16)"/>
<path d="M91.7245 248.607C87.5803 247.384 81.42 248.199 79.0679 253.636C83.4361 260.568 89.8204 252.141 92.6206 248.471C95.9808 251.597 101.469 245.617 103.933 243.034C103.373 242.898 102.701 242.898 102.141 242.898C97.6608 242.762 92.2845 245.617 91.7245 248.607Z" fill="url(#paint13_radial_151_16)"/>
<path d="M221.987 419.728C222.659 439.3 220.867 458.873 216.723 474.775C217.283 482.523 213.251 486.328 212.691 494.212C212.691 495.163 211.795 495.978 212.355 495.843C220.195 481.979 224.003 461.999 225.459 443.786C226.579 429.242 226.467 413.204 223.779 398.661C222.883 394.04 222.659 387.651 218.851 384.933C219.299 396.214 221.539 407.495 221.987 419.728Z" fill="url(#paint14_radial_151_16)"/>
<path d="M289.19 166.647C287.062 167.871 280.342 172.084 275.19 176.026C272.838 177.929 263.765 185.676 259.733 190.977C251.332 201.986 247.86 199.812 248.42 202.394C249.652 204.025 250.996 204.569 252.677 204.705C259.733 205.52 264.325 201.714 267.461 197.229C275.302 185.948 289.414 172.22 301.399 167.191C312.488 162.434 322.568 164.881 332.873 167.191C338.921 168.55 345.081 169.909 351.466 169.909C342.281 164.609 328.504 161.075 315.064 161.075C305.767 160.803 296.583 162.57 289.19 166.647Z" fill="url(#paint15_radial_151_16)"/>
<path d="M50.6183 244.529C41.8818 246.296 14.3284 253.092 17.1285 267.499C17.8006 271.033 24.7449 275.383 28.8892 275.111C34.2654 263.83 36.7296 249.558 52.7464 249.286C53.9785 242.762 58.0107 239.228 61.1468 234.879C60.5868 234.879 60.6988 233.928 60.1388 233.928C57.7867 237.869 51.5143 240.316 50.6183 244.529Z" fill="url(#paint16_radial_151_16)"/>
<path d="M61.8188 263.558C67.1951 268.587 75.7076 263.422 75.7076 256.762C75.3715 256.49 74.8115 256.49 74.2515 256.49C70.7793 256.354 64.619 260.16 61.8188 263.558Z" fill="url(#paint17_radial_151_16)"/>
<path d="M135.743 313.984C137.983 315.887 142.351 316.294 141.567 320.508C146.383 322.275 146.383 326.624 146.831 331.925C160.496 347.284 166.992 372.972 176.961 391.593C176.513 391.593 176.401 391.185 176.065 391.185C178.305 393.768 179.313 397.71 181.553 398.797C174.273 373.108 166.32 349.051 154.672 327.847C154.56 326.76 154.56 325.673 154.448 324.585C150.191 318.877 144.479 315.071 138.767 311.401C137.311 311.809 135.855 312.217 135.743 313.984Z" fill="url(#paint18_radial_151_16)"/>
<mask id="mask0_151_16" style="mask-type:luminance" maskUnits="userSpaceOnUse" x="148" y="148" width="441" height="378">
<path d="M588.134 525.609H148.063V148.027H588.134V525.609Z" fill="white"/>
</mask>
<g mask="url(#mask0_151_16)">
<path d="M286.909 441.56H305.726L279.853 350.631V338.942C279.853 337.039 280.861 335.136 282.877 333.233L282.765 333.369C283.773 332.418 284.781 331.602 285.677 331.194C286.573 330.651 287.469 330.515 288.589 330.515H326.447V354.436L319.503 348.184H299.566L325.999 440.201V451.346C325.999 452.162 325.887 452.977 325.551 453.929C325.215 454.88 324.767 455.696 324.207 456.511C323.535 457.327 322.751 458.006 321.855 458.414C320.847 458.958 319.727 459.094 318.383 459.094H279.741V435.444L286.349 441.56H286.909Z" fill="#1D418C"/>
</g>
<path d="M288.519 333.012C287.847 333.012 287.175 333.148 286.727 333.42C286.054 333.828 285.27 334.371 284.374 335.323C283.366 336.274 282.246 337.633 282.246 338.992V350.274C282.47 350.953 308.904 444.193 308.904 444.193H285.606C285.606 444.193 283.478 442.291 282.134 440.931V456.562H318.424C319.432 456.562 320.216 456.426 320.888 456.018C321.56 455.611 322.12 455.203 322.456 454.659C322.904 454.115 323.24 453.436 323.464 452.892C323.688 452.213 323.8 451.669 323.8 451.125V440.388C323.576 439.572 296.471 345.517 296.471 345.517H320.44C320.44 345.517 322.68 347.555 324.248 348.914V332.876H288.519V333.012Z" fill="url(#paint19_linear_151_16)"/>
<mask id="mask1_151_16" style="mask-type:luminance" maskUnits="userSpaceOnUse" x="148" y="148" width="441" height="378">
<path d="M588.134 525.609H148.063V148.027H588.134V525.609Z" fill="white"/>
</mask>
<g mask="url(#mask1_151_16)">
<path d="M327.558 330.372H360.263L354.327 338.527V441.825H367.32V338.391L361.159 330.372H393.977L387.817 338.391V450.932L395.881 459.087H353.319C340.102 459.087 333.494 456.504 333.494 451.475V338.527L327.558 330.372Z" fill="#1D418C"/>
</g>
<path d="M366.139 333.012C367.595 334.915 369.611 337.498 369.611 337.498V444.466H352.026V337.769C352.026 337.769 354.042 335.051 355.386 333.148H332.313C333.769 335.187 335.673 337.769 335.673 337.769V451.669C335.673 454.795 342.17 456.698 353.146 456.698H389.884C388.092 454.795 385.404 452.213 385.404 452.213V337.498C385.404 337.498 387.42 334.915 388.876 333.012H366.139Z" fill="url(#paint20_linear_151_16)"/>
<mask id="mask2_151_16" style="mask-type:luminance" maskUnits="userSpaceOnUse" x="148" y="148" width="441" height="378">
<path d="M588.134 525.609H148.063V148.027H588.134V525.609Z" fill="white"/>
</mask>
<g mask="url(#mask2_151_16)">
<path d="M421.694 348.864V382.979H425.727C428.191 382.979 430.319 382.435 432.111 381.348C433.903 380.261 435.359 378.766 436.367 377.135C437.487 375.368 438.271 373.601 438.831 371.562C439.391 369.523 439.615 367.62 439.615 365.717C439.615 363.679 439.391 361.776 438.831 359.737C438.271 357.698 437.487 355.931 436.367 354.436C435.247 352.805 433.679 351.582 431.887 350.631C430.095 349.679 427.855 349.271 425.167 349.271H421.694V348.864ZM421.246 392.493V451.21L427.183 459.229H394.477L400.413 451.21V338.67L394.477 330.515H425.727C452.496 330.243 456.864 350.495 457.424 352.941C457.984 355.388 459.328 367.484 456.64 374.552C455.184 378.358 447.792 395.348 428.079 400.105C428.191 399.833 421.246 392.493 421.246 392.493Z" fill="#1D418C"/>
</g>
<path d="M426.622 333.012H399.292C400.749 335.051 402.653 337.633 402.653 337.633V452.077C402.653 452.077 400.749 454.659 399.292 456.562H422.366C420.91 454.659 419.005 452.077 419.005 452.077V386.428C419.005 386.428 427.182 395.263 428.75 396.894C448.127 390.098 453.279 376.778 454.735 373.38C456.079 369.982 458.88 350.546 447.791 340.216C440.511 333.42 429.758 333.012 427.294 333.012C426.846 333.012 426.622 333.012 426.622 333.012ZM419.454 346.332H425.166C428.19 346.332 430.766 346.876 432.894 347.963C435.022 349.05 436.814 350.546 438.158 352.448C439.503 354.215 440.511 356.39 441.071 358.701C441.631 360.875 441.967 363.186 441.967 365.361C441.967 367.535 441.631 369.71 441.071 372.021C440.511 374.331 439.503 376.506 438.27 378.409C437.038 380.448 435.246 382.079 433.23 383.438C431.102 384.797 428.526 385.477 425.726 385.477H419.454V346.332Z" fill="url(#paint21_linear_151_16)"/>
<mask id="mask3_151_16" style="mask-type:luminance" maskUnits="userSpaceOnUse" x="148" y="148" width="441" height="378">
<path d="M588.134 525.609H148.063V148.027H588.134V525.609Z" fill="white"/>
</mask>
<g mask="url(#mask3_151_16)">
<path d="M486.397 394.211V441.646H500.286L507.343 435.258V459.18H459.852L465.788 451.025V394.482H458.956L465.788 377.221V338.62L459.852 330.329H507.343V353.843L500.286 347.998H486.397V376.405H509.247L500.958 394.347H486.397V394.211Z" fill="#1D418C"/>
</g>
<path d="M464.704 333.012C466.16 335.051 468.176 337.769 468.176 337.769V377.865C468.176 377.865 464.368 387.516 462.576 392.001H468.176V451.941C468.176 451.941 466.16 454.659 464.816 456.698H505.25V440.66C503.57 442.155 501.33 444.194 501.33 444.194H484.305V391.729H499.65C500.546 389.826 503.57 383.166 505.586 378.953H484.193V345.517H501.106C501.106 345.517 503.458 347.42 505.138 348.779V332.876H464.704V333.012Z" fill="url(#paint22_linear_151_16)"/>
<mask id="mask4_151_16" style="mask-type:luminance" maskUnits="userSpaceOnUse" x="148" y="148" width="441" height="378">
<path d="M588.134 525.609H148.063V148.027H588.134V525.609Z" fill="white"/>
</mask>
<g mask="url(#mask4_151_16)">
<path d="M541.231 382.918C543.807 382.918 545.935 382.374 547.728 381.287C549.52 380.2 550.976 378.705 552.096 377.074C553.216 375.307 554.112 373.54 554.672 371.501C555.232 369.462 555.456 367.559 555.456 365.656C555.456 363.618 555.232 361.715 554.672 359.676C554.112 357.637 553.328 355.87 552.096 354.375C550.976 352.744 549.408 351.521 547.504 350.57C545.599 349.618 543.359 349.21 540.559 349.21H537.199V383.326H541.231V382.918ZM558.816 392.025L578.865 449.382H578.753L579.425 451.013L587.378 459.168H560.16V452.373L536.751 395.151V451.149L542.687 459.168H509.87L515.918 451.149V338.609L509.87 330.454H541.455C542.127 330.454 542.687 330.454 543.023 330.589C544.703 330.725 546.384 330.861 548.288 331.133C548.288 331.133 571.697 333.308 574.049 359.268C576.065 381.151 558.816 392.025 558.816 392.025Z" fill="#1D418C"/>
</g>
<path d="M541.428 333.012H514.771C516.227 335.051 518.243 337.633 518.243 337.633V452.077C518.243 452.077 516.227 454.659 514.771 456.562H537.844C536.388 454.659 534.484 452.077 534.484 452.077V395.127L538.852 394.039L562.485 451.805V456.562H581.526C579.734 454.659 577.606 452.484 577.606 452.484L576.598 450.31L576.71 450.174L555.989 390.913C576.038 377.321 571.557 355.71 571.557 355.71C566.629 334.235 547.476 332.876 542.548 332.876C541.876 333.012 541.428 333.012 541.428 333.012ZM534.932 346.332H540.756C543.78 346.332 546.468 346.876 548.596 347.963C550.836 349.05 552.628 350.546 553.973 352.448C555.317 354.215 556.325 356.39 556.885 358.701C557.445 360.875 557.781 363.186 557.781 365.361C557.781 367.535 557.445 369.71 556.885 372.021C556.325 374.331 555.317 376.506 553.973 378.545C552.628 380.584 550.948 382.215 548.82 383.438C546.692 384.797 544.116 385.477 541.204 385.477H534.82L534.932 346.332Z" fill="url(#paint23_linear_151_16)"/>
<mask id="mask5_151_16" style="mask-type:luminance" maskUnits="userSpaceOnUse" x="148" y="148" width="441" height="378">
<path d="M588.134 525.609H148.063V148.027H588.134V525.609Z" fill="white"/>
</mask>
<g mask="url(#mask5_151_16)">
<path d="M547.649 469.669C547.201 469.669 503.407 470.893 498.591 518.192C498.591 518.736 493.999 568.618 551.906 581.938L576.099 587.103C576.099 587.103 575.203 547.687 575.091 545.24C575.987 544.289 581.587 538.716 581.587 538.716L550.002 535.046C550.002 535.046 550.45 557.201 550.562 562.366C543.617 560.327 525.248 552.036 525.248 521.454C525.248 520.911 525.248 520.367 525.248 519.823C527.6 487.747 546.305 487.747 547.201 487.747C547.201 487.747 566.242 488.018 567.363 488.018C568.147 488.562 575.651 493.727 575.651 493.727L575.091 469.805H547.649V469.669Z" fill="#1D418C"/>
<path d="M235.434 481.66C231.514 477.855 227.482 473.913 223.45 469.971C245.851 469.971 267.468 469.971 288.413 469.971C284.605 473.369 280.685 476.767 276.877 480.301C276.541 495.524 276.317 510.611 275.981 525.834C284.605 508.98 293.341 493.485 301.966 478.806C302.078 475.816 302.078 472.961 302.19 469.971C318.655 469.971 334.672 469.971 350.24 469.971C346.656 472.826 339.04 478.806 338.928 478.942C339.04 478.806 317.983 515.232 307.006 536.028C316.751 561.037 326.271 584.007 335.68 605.21C339.152 606.705 342.736 608.065 346.208 609.56C330.527 615.676 314.511 622.744 298.382 630.627C298.494 627.637 298.494 624.647 298.606 621.52C290.989 604.123 283.149 585.366 275.196 565.25C274.748 587.813 274.3 610.375 273.852 632.938C277.437 634.569 281.021 636.064 284.605 637.423C264.22 648.025 243.723 660.121 223.114 673.849C226.81 667.325 230.618 660.937 234.314 654.821C234.65 625.87 235.322 501.64 235.434 481.66Z" fill="#1D418C"/>
</g>
<path d="M304.2 472.465C304.088 475.047 303.976 479.668 303.976 479.668L303.64 480.212C294.679 495.435 285.943 511.201 277.766 527.104L273.734 534.987L274.854 478.853C274.854 478.853 278.886 475.183 282.134 472.329C281.798 472.329 239.124 472.329 229.492 472.329C232.964 475.727 237.668 480.348 237.668 480.348V481.571L236.66 655.547C236.66 655.547 233.3 661.391 230.276 666.42C246.405 656.091 262.757 646.44 279.11 637.742C276.198 636.518 271.83 634.751 271.83 634.751L271.942 632.849L273.286 565.161L277.318 564.074C285.159 583.918 292.999 602.81 300.615 620.208L300.839 620.752C300.839 620.752 300.727 624.15 300.727 626.596C313.72 620.344 326.825 614.499 339.817 609.335C337.465 608.383 334.329 607.024 334.329 607.024L333.993 606.208C324.249 584.326 314.84 561.627 305.208 536.89L304.76 535.667L305.432 534.443C315.736 514.871 337.913 476.678 337.913 476.678C337.913 476.678 340.601 474.503 343.402 472.329C334.889 472.465 307.448 472.465 304.2 472.465Z" fill="url(#paint24_linear_151_16)"/>
<mask id="mask6_151_16" style="mask-type:luminance" maskUnits="userSpaceOnUse" x="148" y="148" width="441" height="378">
<path d="M588.134 525.609H148.063V148.027H588.134V525.609Z" fill="white"/>
</mask>
<g mask="url(#mask6_151_16)">
<path d="M348.435 608.553C351.795 604.476 355.155 600.67 358.404 596.864C359.524 557.176 360.644 517.488 361.764 477.935C358.628 475.353 355.491 472.635 352.467 469.916C370.052 469.916 387.077 469.916 403.542 469.916C400.518 472.363 397.494 474.809 394.469 477.392C393.573 513.818 392.789 550.244 391.893 586.806C394.917 588.437 397.942 590.068 400.966 591.699C383.829 596.049 366.244 601.757 348.435 608.553Z" fill="#1D418C"/>
</g>
<path d="M359.082 472.465C360.986 474.096 364.011 476.678 364.011 476.678V478.037L360.65 597.918C360.65 597.918 358.074 601.044 356.282 603.083C369.051 598.461 381.82 594.248 394.476 590.714C392.908 589.898 389.884 588.267 389.884 588.267L390.556 559.86L392.572 475.863C392.572 475.863 395.26 473.688 396.828 472.329C387.42 472.465 364.011 472.465 359.082 472.465Z" fill="url(#paint25_linear_151_16)"/>
<mask id="mask7_151_16" style="mask-type:luminance" maskUnits="userSpaceOnUse" x="148" y="148" width="441" height="378">
<path d="M588.134 525.609H148.063V148.027H588.134V525.609Z" fill="white"/>
</mask>
<g mask="url(#mask7_151_16)">
<path d="M434.793 469.684C444.09 483.004 453.274 495.916 462.458 508.556C462.458 503.392 462.458 498.227 462.458 493.062C462.57 487.489 462.683 481.781 462.795 476.208C460.106 474.033 457.418 471.858 454.73 469.684H499.868C497.292 471.994 494.828 474.169 492.252 476.48C492.588 513.585 493.036 550.555 493.372 587.525C492.588 587.661 491.804 587.797 490.908 587.933C475.563 565.914 460.218 544.983 444.762 523.236C444.65 540.633 444.538 558.167 444.314 575.564C447.226 577.331 450.138 579.098 453.05 581.001C436.809 583.176 420.008 586.574 402.983 591.059C406.12 587.797 409.256 584.671 412.392 581.681C413.064 546.75 413.624 511.819 414.296 477.023C411.384 474.713 408.472 472.266 405.56 469.956H434.793V469.684Z" fill="#1D418C"/>
</g>
<path d="M461.68 472.329C462.688 473.144 465.04 475.047 465.04 475.047V476.406L464.704 493.26C464.704 493.804 464.704 515.415 464.704 515.415L461.008 510.386C453.055 499.377 443.647 486.328 433.902 472.329H412.621C413.965 473.416 416.541 475.591 416.541 475.591V476.95L414.525 582.831C414.525 582.831 412.061 585.277 410.829 586.5C422.702 583.646 434.574 581.336 446.111 579.433C444.991 578.753 442.303 577.122 442.303 577.122V575.491L442.751 516.502L463.472 545.317C472.544 557.958 482.065 571.142 491.249 584.326C491.137 578.617 490.129 475.183 490.129 475.183C490.129 475.183 492.369 473.144 493.377 472.329H461.68Z" fill="url(#paint26_linear_151_16)"/>
<mask id="mask8_151_16" style="mask-type:luminance" maskUnits="userSpaceOnUse" x="148" y="148" width="441" height="378">
<path d="M588.134 525.609H148.063V148.027H588.134V525.609Z" fill="white"/>
</mask>
<g mask="url(#mask8_151_16)">
<path d="M592.423 575.33C599.143 577.369 605.639 579.544 612.024 582.126C602.951 547.739 593.319 516.885 583.238 488.478C583.126 484.944 583.126 481.274 583.014 477.74C583.014 475.974 584.022 474.343 586.038 472.711C587.942 470.945 590.071 469.993 592.199 469.993C605.639 469.993 618.744 469.993 631.401 469.993V495.274C629.273 492.963 627.032 490.653 624.792 488.342C617.96 487.934 614.936 487.527 607.879 487.119C617.512 517.565 626.696 551.001 634.985 588.65C634.985 592.728 635.209 602.922 634.873 603.737C634.649 604.553 634.201 605.232 633.641 605.776C633.081 606.319 632.409 606.591 631.513 606.591C630.617 606.591 629.609 606.319 628.377 605.64C616.168 599.116 598.919 593.407 585.142 589.194C585.03 581.99 584.806 574.922 584.694 567.719C587.158 570.165 589.511 572.612 591.863 575.194C591.975 575.194 592.199 575.33 592.423 575.33Z" fill="#1D418C"/>
</g>
<path d="M587.35 474.775L587.238 474.911C586.006 475.999 585.222 476.95 585.222 477.63C585.222 477.63 585.446 487.008 585.446 487.824C596.423 518.949 605.831 549.531 614.12 581.2L615.464 586.229L611.32 584.598C605.047 582.151 598.551 579.976 591.943 577.938L590.822 577.53L590.374 577.122C590.374 577.122 588.694 575.355 587.014 573.588C587.126 579.025 587.238 584.598 587.238 586.908C599.783 590.85 616.92 596.559 629.24 603.083C630.36 603.626 631.032 603.762 631.369 603.762C631.705 603.762 632.041 603.626 632.265 603.49C632.489 603.354 632.601 603.083 632.713 602.811C632.713 602.131 632.825 600.772 632.825 599.005C632.825 596.966 632.825 594.656 632.825 592.889C632.825 592.889 632.825 589.627 632.825 588.947C625.096 554.016 616.36 520.852 605.943 487.96L604.711 484.018L617.928 484.969L625.88 485.649L626.44 486.193C626.44 486.193 627.896 487.824 629.464 489.319V472.601C625.768 472.601 592.503 472.601 592.503 472.601C590.598 472.601 589.03 473.28 587.35 474.775Z" fill="url(#paint27_linear_151_16)"/>
<path d="M547.7 472.465C547.7 472.465 505.474 473.144 500.881 518.541C500.881 518.541 495.841 566.385 552.404 579.297L573.909 583.782L573.013 543.958L576.149 540.832L552.404 538.114L552.964 565.705C552.964 565.705 522.275 561.084 523.171 519.629C525.747 484.29 547.364 485.105 547.364 485.105L568.085 485.377L573.349 489.047L573.013 472.601L547.7 472.465Z" fill="url(#paint28_linear_151_16)"/>
<mask id="mask9_151_16" style="mask-type:luminance" maskUnits="userSpaceOnUse" x="148" y="148" width="441" height="378">
<path d="M588.134 525.609H148.063V148.027H588.134V525.609Z" fill="white"/>
</mask>
<g mask="url(#mask9_151_16)">
<path d="M429.758 172.321L424.046 165.118L417.885 171.778L423.598 178.845L429.758 172.321ZM422.59 222.339L417.549 216.087L422.926 210.379L427.966 216.631L422.59 222.339ZM464.256 237.019C447.791 229.407 454.959 210.65 454.959 210.65C454.959 210.65 452.271 217.582 443.311 216.495C425.278 214.32 424.158 183.467 424.158 183.467C420.798 203.311 413.629 212.281 403.885 214.184C393.244 216.223 390.892 206.845 390.892 206.845C390.892 206.845 394.924 222.611 382.94 230.359C371.851 237.29 364.123 223.834 364.123 223.834L380.476 258.086C389.996 245.717 403.101 233.892 421.022 233.892C439.055 233.892 455.183 244.358 463.808 258.086H463.92L478.705 231.582C470.864 240.417 464.256 237.019 464.256 237.019ZM463.584 204.942L461.792 197.738L455.519 199.777L457.312 206.981L463.584 204.942ZM485.761 218.941L479.041 220.436L480.385 228.456L487.105 226.961L485.761 218.941ZM391.676 195.699L385.628 192.845L383.164 199.777L389.212 202.631C389.1 202.631 391.676 195.699 391.676 195.699ZM359.194 212.281L357.402 219.485L363.675 221.524L365.467 214.32C365.355 214.456 359.194 212.281 359.194 212.281Z" fill="#1C63B7"/>
<path d="M338.319 285.525V269.079L334.847 265.545H353.888L350.416 269.079V285.253H357.92V269.079L354.448 265.545H373.489L369.905 268.943V317.194L373.489 320.592H354.448L358.032 317.194V293.001H350.528V317.058L354 320.456H334.959L338.431 317.058V293.001H334.511L338.319 285.525Z" fill="#1C63B7"/>
<path d="M389.311 292.756V313.008H397.375L401.52 310.29V320.484H373.854L377.326 316.95V292.756H373.406L377.326 285.417V268.971L373.854 265.437H401.52V275.495L397.375 273.048H389.311V285.145H402.64L397.824 292.756H389.311Z" fill="#1C63B7"/>
<path d="M414.34 265.432L425.316 284.597V277.121L425.428 268.83L421.956 265.296H441.445L437.973 268.83V325.372L436.741 325.508L418.372 291.8V316.81L421.844 320.207H402.803L406.275 316.81V268.694L402.803 265.16H414.34V265.432Z" fill="#1C63B7"/>
<path d="M453.195 265.432L464.171 284.597V277.121L464.283 268.83L460.811 265.296H480.3L476.828 268.83V325.372L475.596 325.508L457.227 291.8V316.81L460.699 320.207H441.658L445.13 316.81V268.694L441.658 265.16H453.195V265.432Z" fill="#1C63B7"/>
<path d="M496.177 285.169H503.682V272.936H496.177V285.169ZM500.209 320.508L503.794 317.11V292.916H496.289V317.11L499.761 320.508H480.72L484.193 317.11V293.052H480.272L484.305 285.577V270.218C484.417 268.995 485.649 267.771 488.225 266.82C490.577 266.004 493.041 265.597 495.729 265.597H504.466C505.698 265.597 506.93 265.733 508.05 266.004C509.17 266.276 510.402 266.548 511.634 266.956C513.986 267.771 515.442 268.859 515.778 270.218V317.246L519.362 320.508H500.209Z" fill="#1C63B7"/>
<path d="M519.575 320.466L522.935 317.068V268.953L519.575 265.419H537.832L534.583 268.953V317.068L537.832 320.466H519.575Z" fill="#1C63B7"/>
<path d="M333.646 277.388V265.427C333.646 265.427 308.22 262.029 306.54 292.475C306.54 292.475 306.204 317.212 327.709 320.338L333.646 320.61V308.377L329.39 311.367C329.39 311.367 318.525 312.455 317.853 292.882C317.853 292.882 318.301 273.99 329.502 274.398L333.646 277.388Z" fill="#1C63B7"/>
</g>
<defs>
<radialGradient id="paint0_radial_151_16" cx="0" cy="0" r="1" gradientUnits="userSpaceOnUse" gradientTransform="translate(73.1568 430.955) scale(57.4095 69.6662)">
<stop stop-color="#FFF200"/>
<stop offset="1" stop-color="#F25C19"/>
</radialGradient>
<radialGradient id="paint1_radial_151_16" cx="0" cy="0" r="1" gradientUnits="userSpaceOnUse" gradientTransform="translate(73.1573 430.963) scale(57.4089 69.6655)">
<stop stop-color="#FFF200"/>
<stop offset="1" stop-color="#F25C19"/>
</radialGradient>
<radialGradient id="paint2_radial_151_16" cx="0" cy="0" r="1" gradientUnits="userSpaceOnUse" gradientTransform="translate(73.1282 430.908) scale(57.3988 69.6536)">
<stop stop-color="#FFF200"/>
<stop offset="1" stop-color="#F25C19"/>
</radialGradient>
<radialGradient id="paint3_radial_151_16" cx="0" cy="0" r="1" gradientUnits="userSpaceOnUse" gradientTransform="translate(73.1339 430.913) scale(57.4013 69.6561)">
<stop stop-color="#FFF200"/>
<stop offset="1" stop-color="#F25C19"/>
</radialGradient>
<radialGradient id="paint4_radial_151_16" cx="0" cy="0" r="1" gradientUnits="userSpaceOnUse" gradientTransform="translate(73.145 430.961) scale(57.415 69.6729)">
<stop stop-color="#FFF200"/>
<stop offset="1" stop-color="#F25C19"/>
</radialGradient>
<radialGradient id="paint5_radial_151_16" cx="0" cy="0" r="1" gradientUnits="userSpaceOnUse" gradientTransform="translate(73.1612 431.003) scale(57.42 69.6792)">
<stop stop-color="#FFF200"/>
<stop offset="1" stop-color="#F25C19"/>
</radialGradient>
<radialGradient id="paint6_radial_151_16" cx="0" cy="0" r="1" gradientUnits="userSpaceOnUse" gradientTransform="translate(73.1536 430.948) scale(57.4086 69.6653)">
<stop stop-color="#FFF200"/>
<stop offset="1" stop-color="#F25C19"/>
</radialGradient>
<radialGradient id="paint7_radial_151_16" cx="0" cy="0" r="1" gradientUnits="userSpaceOnUse" gradientTransform="translate(73.1413 430.944) scale(57.4086 69.6651)">
<stop stop-color="#FFF200"/>
<stop offset="1" stop-color="#F25C19"/>
</radialGradient>
<radialGradient id="paint8_radial_151_16" cx="0" cy="0" r="1" gradientUnits="userSpaceOnUse" gradientTransform="translate(73.1495 430.952) scale(57.4101 69.667)">
<stop stop-color="#FFF200"/>
<stop offset="1" stop-color="#F25C19"/>
</radialGradient>
<radialGradient id="paint9_radial_151_16" cx="0" cy="0" r="1" gradientUnits="userSpaceOnUse" gradientTransform="translate(73.1702 430.969) scale(57.4046 69.6603)">
<stop stop-color="#FFF200"/>
<stop offset="1" stop-color="#F25C19"/>
</radialGradient>
<radialGradient id="paint10_radial_151_16" cx="0" cy="0" r="1" gradientUnits="userSpaceOnUse" gradientTransform="translate(73.1516 430.696) scale(57.4091 69.6658)">
<stop stop-color="#FFF200"/>
<stop offset="1" stop-color="#F25C19"/>
</radialGradient>
<radialGradient id="paint11_radial_151_16" cx="0" cy="0" r="1" gradientUnits="userSpaceOnUse" gradientTransform="translate(73.145 430.949) scale(57.4097 69.6664)">
<stop stop-color="#FFF200"/>
<stop offset="1" stop-color="#F25C19"/>
</radialGradient>
<radialGradient id="paint12_radial_151_16" cx="0" cy="0" r="1" gradientUnits="userSpaceOnUse" gradientTransform="translate(73.1419 430.942) scale(57.4098 69.6666)">
<stop stop-color="#FFF200"/>
<stop offset="1" stop-color="#F25C19"/>
</radialGradient>
<radialGradient id="paint13_radial_151_16" cx="0" cy="0" r="1" gradientUnits="userSpaceOnUse" gradientTransform="translate(73.1393 430.942) scale(57.4091 69.6656)">
<stop stop-color="#FFF200"/>
<stop offset="1" stop-color="#F25C19"/>
</radialGradient>
<radialGradient id="paint14_radial_151_16" cx="0" cy="0" r="1" gradientUnits="userSpaceOnUse" gradientTransform="translate(81.1456 430.896) scale(54.7352 66.4208)">
<stop stop-color="#FFF200"/>
<stop offset="1" stop-color="#F25C19"/>
</radialGradient>
<radialGradient id="paint15_radial_151_16" cx="0" cy="0" r="1" gradientUnits="userSpaceOnUse" gradientTransform="translate(73.084 430.902) scale(57.4144 69.6721)">
<stop stop-color="#FFF200"/>
<stop offset="1" stop-color="#F25C19"/>
</radialGradient>
<radialGradient id="paint16_radial_151_16" cx="0" cy="0" r="1" gradientUnits="userSpaceOnUse" gradientTransform="translate(73.1575 430.975) scale(57.4104 69.6673)">
<stop stop-color="#FFF200"/>
<stop offset="1" stop-color="#F25C19"/>
</radialGradient>
<radialGradient id="paint17_radial_151_16" cx="0" cy="0" r="1" gradientUnits="userSpaceOnUse" gradientTransform="translate(73.1686 430.97) scale(57.404 69.6596)">
<stop stop-color="#FFF200"/>
<stop offset="1" stop-color="#F25C19"/>
</radialGradient>
<radialGradient id="paint18_radial_151_16" cx="0" cy="0" r="1" gradientUnits="userSpaceOnUse" gradientTransform="translate(73.1136 430.977) scale(57.4092 69.6658)">
<stop stop-color="#FFF200"/>
<stop offset="1" stop-color="#F25C19"/>
</radialGradient>
<linearGradient id="paint19_linear_151_16" x1="303.078" y1="334.365" x2="303.078" y2="368.182" gradientUnits="userSpaceOnUse">
<stop stop-color="#00ADEF"/>
<stop offset="1" stop-color="#1D418C"/>
</linearGradient>
<linearGradient id="paint20_linear_151_16" x1="361.172" y1="334.365" x2="361.172" y2="368.182" gradientUnits="userSpaceOnUse">
<stop stop-color="#00ADEF"/>
<stop offset="1" stop-color="#1D418C"/>
</linearGradient>
<linearGradient id="paint21_linear_151_16" x1="427.705" y1="336.155" x2="427.705" y2="369.476" gradientUnits="userSpaceOnUse">
<stop stop-color="#00ADEF"/>
<stop offset="1" stop-color="#1D418C"/>
</linearGradient>
<linearGradient id="paint22_linear_151_16" x1="484.041" y1="334.365" x2="484.041" y2="368.182" gradientUnits="userSpaceOnUse">
<stop stop-color="#00ADEF"/>
<stop offset="1" stop-color="#1D418C"/>
</linearGradient>
<linearGradient id="paint23_linear_151_16" x1="548.097" y1="334.389" x2="548.097" y2="368.214" gradientUnits="userSpaceOnUse">
<stop stop-color="#00ADEF"/>
<stop offset="1" stop-color="#1D418C"/>
</linearGradient>
<linearGradient id="paint24_linear_151_16" x1="286.239" y1="472.458" x2="286.239" y2="501.9" gradientUnits="userSpaceOnUse">
<stop stop-color="#00ADEF"/>
<stop offset="1" stop-color="#1D418C"/>
</linearGradient>
<linearGradient id="paint25_linear_151_16" x1="376.412" y1="472.435" x2="376.412" y2="501.878" gradientUnits="userSpaceOnUse">
<stop stop-color="#00ADEF"/>
<stop offset="1" stop-color="#1D418C"/>
</linearGradient>
<linearGradient id="paint26_linear_151_16" x1="452.137" y1="472.303" x2="452.137" y2="501.745" gradientUnits="userSpaceOnUse">
<stop stop-color="#00ADEF"/>
<stop offset="1" stop-color="#1D418C"/>
</linearGradient>
<linearGradient id="paint27_linear_151_16" x1="609.004" y1="472.329" x2="609.004" y2="501.772" gradientUnits="userSpaceOnUse">
<stop stop-color="#00ADEF"/>
<stop offset="1" stop-color="#1D418C"/>
</linearGradient>
<linearGradient id="paint28_linear_151_16" x1="538.442" y1="475.262" x2="538.442" y2="503.279" gradientUnits="userSpaceOnUse">
<stop stop-color="#00ADEF"/>
<stop offset="1" stop-color="#1D418C"/>
</linearGradient>
</defs>
</svg>
