<svg width="600" height="600" viewBox="0 0 600 600" fill="none" xmlns="http://www.w3.org/2000/svg">
<mask id="mask0_151_269" style="mask-type:luminance" maskUnits="userSpaceOnUse" x="0" y="0" width="600" height="600">
<path d="M0 0V600H600V0H0Z" fill="white"/>
</mask>
<g mask="url(#mask0_151_269)">
<path d="M0 0V600H600V0H0Z" fill="#012169"/>
<path d="M0 0L600 600ZM600 0L0 600Z" fill="black"/>
<path d="M0 0L600 600M600 0L0 600" stroke="white" stroke-width="120"/>
<mask id="mask1_151_269" style="mask-type:luminance" maskUnits="userSpaceOnUse" x="0" y="0" width="600" height="600">
<path d="M300 300H600V600L300 300ZM300 300V600H0L300 300ZM300 300H0V0L300 300ZM300 300V0H600L300 300Z" fill="white"/>
</mask>
<g mask="url(#mask1_151_269)">
<path d="M0 0L600 600ZM600 0L0 600Z" fill="black"/>
<path d="M0 0L600 600M600 0L0 600" stroke="#C8102E" stroke-width="80"/>
</g>
<path d="M300 0V600ZM0 300H600Z" fill="black"/>
<path d="M300 0V600M0 300H600" stroke="white" stroke-width="200"/>
<path d="M300 0V600ZM0 300H600Z" fill="black"/>
<path d="M300 0V600M0 300H600" stroke="#C8102E" stroke-width="120"/>
</g>
</svg>
