<svg width="800" height="800" viewBox="0 0 800 800" fill="none" xmlns="http://www.w3.org/2000/svg">
<g clip-path="url(#clip0_157_2)">
<path d="M0 0H800V800H0V0Z" fill="white"/>
<path d="M0 0H800V266.667H0V0Z" fill="#FF6820"/>
<path d="M0 533.333H800V800H0V533.333Z" fill="#046A38"/>
<path d="M400 523.333C445.41 523.333 482.222 468.115 482.222 400C482.222 331.885 445.41 276.667 400 276.667C354.589 276.667 317.777 331.885 317.777 400C317.777 468.115 354.589 523.333 400 523.333Z" fill="#07038D"/>
<path d="M400 506.667C439.273 506.667 471.111 458.911 471.111 400C471.111 341.09 439.273 293.333 400 293.333C360.726 293.333 328.889 341.09 328.889 400C328.889 458.911 360.726 506.667 400 506.667Z" fill="white"/>
<path d="M400 421.333C407.854 421.333 414.222 411.782 414.222 400C414.222 388.218 407.854 378.667 400 378.667C392.145 378.667 385.777 388.218 385.777 400C385.777 411.782 392.145 421.333 400 421.333Z" fill="#07038D"/>
<path d="M400 293.333L402.666 357.521L400 389.302L397.333 357.521L400 293.333Z" fill="#07038D"/>
<path d="M408.876 298.873C410.579 299.209 412.142 297.411 412.366 294.855C412.591 292.3 411.392 289.956 409.688 289.619C407.984 289.283 406.422 291.082 406.197 293.637C405.973 296.192 407.172 298.536 408.876 298.873Z" fill="#07038D"/>
<path d="M400 506.667L397.334 442.479L400 410.698L402.667 442.479L400 506.667Z" fill="#07038D"/>
<path d="M391.124 501.128C389.421 500.791 387.858 502.59 387.634 505.145C387.409 507.701 388.608 510.045 390.312 510.381C392.016 510.718 393.578 508.919 393.803 506.363C394.027 503.808 392.828 501.464 391.124 501.128Z" fill="#07038D"/>
<path d="M417.353 297.565L411.313 360.4L402.898 389.07L404.057 357.135L417.353 297.565Z" fill="#07038D"/>
<path d="M426.271 305.297C427.996 306.541 429.816 305.83 430.336 303.707C430.856 301.584 429.879 298.854 428.154 297.61C426.429 296.365 424.609 297.077 424.089 299.199C423.569 301.322 424.546 304.052 426.271 305.297Z" fill="#07038D"/>
<path d="M382.647 502.436L388.687 439.601L397.102 410.931L395.943 442.866L382.647 502.436Z" fill="#07038D"/>
<path d="M373.729 494.704C372.004 493.459 370.184 494.171 369.664 496.294C369.144 498.417 370.121 501.146 371.846 502.391C373.571 503.636 375.391 502.924 375.911 500.802C376.431 498.679 375.454 495.949 373.729 494.704Z" fill="#07038D"/>
<path d="M435.089 308.071L417.092 365.508L404.031 390.289L411.541 360.615L435.089 308.071Z" fill="#07038D"/>
<path d="M441.593 318.764C443.066 320.506 445.019 320.402 445.955 318.531C446.892 316.66 446.457 313.731 444.985 311.988C443.512 310.245 441.559 310.349 440.623 312.22C439.686 314.091 440.121 317.021 441.593 318.764Z" fill="#07038D"/>
<path d="M364.91 491.929L382.907 434.492L395.968 409.711L388.458 439.385L364.91 491.929Z" fill="#07038D"/>
<path d="M358.406 481.236C356.933 479.494 354.98 479.598 354.044 481.469C353.107 483.34 353.542 486.269 355.014 488.012C356.487 489.755 358.44 489.651 359.376 487.78C360.313 485.909 359.878 482.979 358.406 481.236Z" fill="#07038D"/>
<path d="M449.982 325.062L422.315 373.114L405.346 391.95L417.94 366.485L449.982 325.062Z" fill="#07038D"/>
<path d="M454.126 337.618C455.27 339.822 457.223 340.467 458.488 339.058C459.753 337.649 459.851 334.719 458.707 332.515C457.562 330.31 455.609 329.665 454.345 331.074C453.08 332.483 452.982 335.413 454.126 337.618Z" fill="#07038D"/>
<path d="M350.018 474.939L377.685 426.887L394.654 408.051L382.06 433.516L350.018 474.939Z" fill="#07038D"/>
<path d="M345.874 462.383C344.73 460.179 342.777 459.534 341.512 460.943C340.247 462.352 340.149 465.282 341.293 467.486C342.438 469.691 344.391 470.336 345.655 468.927C346.92 467.518 347.018 464.588 345.874 462.383Z" fill="#07038D"/>
<path d="M461.828 346.076L425.529 381.834L405.93 395.242L423.353 376.087L461.828 346.076Z" fill="#07038D"/>
<path d="M462.608 361.296C463.147 363.495 464.967 364.33 466.673 363.162C468.379 361.994 469.326 359.264 468.787 357.065C468.248 354.866 466.428 354.03 464.722 355.199C463.016 356.367 462.069 359.097 462.608 361.296Z" fill="#07038D"/>
<path d="M338.171 453.924L374.47 418.166L394.069 404.758L376.646 423.913L338.171 453.924Z" fill="#07038D"/>
<path d="M337.391 438.704C336.852 436.505 335.032 435.67 333.326 436.838C331.62 438.006 330.673 440.736 331.212 442.935C331.751 445.134 333.571 445.97 335.277 444.801C336.983 443.633 337.93 440.903 337.391 438.704Z" fill="#07038D"/>
<path d="M468.857 371.775L427.815 392.46L406.717 397.849L426.776 385.968L468.857 371.775Z" fill="#07038D"/>
<path d="M467.229 386.928C467.35 389.349 468.912 390.932 470.72 390.462C472.527 389.992 473.895 387.647 473.775 385.226C473.654 382.804 472.091 381.222 470.284 381.692C468.477 382.162 467.109 384.506 467.229 386.928Z" fill="#07038D"/>
<path d="M331.142 428.224L372.184 407.539L393.282 402.15L373.223 414.031L331.142 428.224Z" fill="#07038D"/>
<path d="M332.77 413.071C332.649 410.65 331.087 409.067 329.279 409.537C327.472 410.007 326.104 412.352 326.224 414.773C326.345 417.195 327.908 418.777 329.715 418.307C331.523 417.837 332.89 415.493 332.77 413.071Z" fill="#07038D"/>
<path d="M470.839 398.272L428.139 402.856L407.402 401.728L428.681 398.311L470.839 398.272Z" fill="#07038D"/>
<path d="M467.719 413.575C467.329 416.275 468.258 418.619 469.795 418.811C471.332 419.003 472.895 416.97 473.286 414.27C473.676 411.57 472.747 409.226 471.21 409.034C469.673 408.842 468.11 410.875 467.719 413.575Z" fill="#07038D"/>
<path d="M329.16 401.728L371.86 397.144L392.597 398.272L371.318 401.689L329.16 401.728Z" fill="#07038D"/>
<path d="M332.28 386.425C332.67 383.725 331.741 381.381 330.204 381.189C328.667 380.997 327.104 383.03 326.713 385.73C326.323 388.43 327.252 390.774 328.789 390.966C330.326 391.158 331.889 389.125 332.28 386.425Z" fill="#07038D"/>
<path d="M468.703 427.449L426.675 415.069L406.875 402.927L428.025 407.026L468.703 427.449Z" fill="#07038D"/>
<path d="M462.812 439.08C462.161 441.487 462.927 444.217 464.521 445.178C466.116 446.138 467.935 444.966 468.586 442.559C469.236 440.152 468.471 437.422 466.877 436.462C465.282 435.501 463.462 436.674 462.812 439.08Z" fill="#07038D"/>
<path d="M331.297 372.551L373.326 384.931L393.126 397.074L371.976 392.974L331.297 372.551Z" fill="#07038D"/>
<path d="M337.189 360.92C337.84 358.513 337.074 355.783 335.48 354.823C333.885 353.862 332.066 355.035 331.415 357.442C330.765 359.849 331.53 362.578 333.124 363.539C334.719 364.499 336.539 363.327 337.189 360.92Z" fill="#07038D"/>
<path d="M461.829 453.924L423.354 423.914L405.931 404.759L425.53 418.167L461.829 453.924Z" fill="#07038D"/>
<path d="M453.751 461.781C452.814 463.653 453.247 466.583 454.719 468.324C456.191 470.066 458.144 469.96 459.081 468.088C460.019 466.216 459.585 463.287 458.113 461.545C456.641 459.803 454.688 459.909 453.751 461.781Z" fill="#07038D"/>
<path d="M338.17 346.076L376.645 376.086L394.068 395.242L374.469 381.834L338.17 346.076Z" fill="#07038D"/>
<path d="M346.248 338.219C347.185 336.347 346.752 333.418 345.28 331.676C343.808 329.934 341.855 330.04 340.918 331.912C339.98 333.784 340.414 336.714 341.886 338.455C343.358 340.197 345.311 340.091 346.248 338.219Z" fill="#07038D"/>
<path d="M450.572 475.892L418.33 432.242L404.752 407.099L421.522 427.518L450.572 475.892Z" fill="#07038D"/>
<path d="M441.198 480.598C439.944 481.988 439.863 484.918 441.018 487.141C442.173 489.365 444.126 490.041 445.38 488.651C446.635 487.261 446.715 484.332 445.56 482.108C444.405 479.884 442.452 479.208 441.198 480.598Z" fill="#07038D"/>
<path d="M349.428 324.108L381.67 367.759L395.248 392.902L378.478 372.482L349.428 324.108Z" fill="#07038D"/>
<path d="M358.802 319.402C360.056 318.012 360.137 315.083 358.982 312.859C357.827 310.635 355.874 309.959 354.62 311.349C353.365 312.739 353.285 315.668 354.44 317.892C355.595 320.116 357.548 320.792 358.802 319.402Z" fill="#07038D"/>
<path d="M435.74 492.597L411.973 438.492L403.382 409.044L416.223 434.934L435.74 492.597Z" fill="#07038D"/>
<path d="M425.924 494.048C424.391 494.931 423.725 497.661 424.436 500.146C425.148 502.63 426.968 503.929 428.501 503.046C430.034 502.163 430.7 499.433 429.989 496.949C429.277 494.464 427.457 493.166 425.924 494.048Z" fill="#07038D"/>
<path d="M364.26 307.403L388.027 361.508L396.618 390.957L383.777 365.066L364.26 307.403Z" fill="#07038D"/>
<path d="M374.076 305.952C375.609 305.069 376.275 302.339 375.564 299.855C374.852 297.37 373.032 296.072 371.499 296.955C369.966 297.838 369.3 300.567 370.011 303.052C370.723 305.536 372.543 306.835 374.076 305.952Z" fill="#07038D"/>
<path d="M418.576 503.181L404.867 441.868L401.672 410.185L409.673 440.095L418.576 503.181Z" fill="#07038D"/>
<path d="M408.811 500.969C407.143 501.217 406.001 503.562 406.26 506.205C406.519 508.848 408.082 510.789 409.751 510.54C411.419 510.291 412.561 507.947 412.302 505.304C412.042 502.661 410.48 500.72 408.811 500.969Z" fill="#07038D"/>
<path d="M381.422 296.82L395.131 358.133L398.326 389.816L390.325 359.906L381.422 296.82Z" fill="#07038D"/>
<path d="M391.187 299.032C392.855 298.784 393.997 296.439 393.738 293.796C393.479 291.153 391.916 289.212 390.247 289.461C388.579 289.71 387.437 292.054 387.696 294.697C387.956 297.34 389.518 299.281 391.187 299.032Z" fill="#07038D"/>
</g>
<defs>
<clipPath id="clip0_157_2">
<rect width="800" height="800" fill="white"/>
</clipPath>
</defs>
</svg>
