<svg width="700" height="700" viewBox="0 0 700 700" fill="none" xmlns="http://www.w3.org/2000/svg">
<g clip-path="url(#clip0_151_276)">
<path d="M700 0H0V700H700V0Z" fill="white"/>
<path d="M700 0H175V700H700V0Z" fill="#01411C"/>
<path d="M437.5 560C514.82 560 577.5 465.98 577.5 350C577.5 234.02 514.82 140 437.5 140C360.18 140 297.5 234.02 297.5 350C297.5 465.98 360.18 560 437.5 560Z" fill="white"/>
<path d="M558.546 446.162C611.52 375.53 616.291 253.856 569.203 174.396C522.116 94.9348 441 87.7776 388.026 158.409C335.052 229.041 330.281 350.715 377.368 430.176C424.456 509.636 505.572 516.794 558.546 446.162Z" fill="#01411C"/>
<path d="M488.55 192.86L547.523 292.376L460.817 263.861L542.137 210.484L497.264 325.365L488.55 192.86Z" fill="white"/>
</g>
<defs>
<clipPath id="clip0_151_276">
<rect width="700" height="700" fill="white"/>
</clipPath>
</defs>
</svg>
