<svg width="1000" height="1000" viewBox="0 0 1000 1000" fill="none" xmlns="http://www.w3.org/2000/svg">
<g clip-path="url(#clip0_158_202)">
<path d="M0 0H1000V1000H0V0Z" fill="#FFBE29"/>
<path d="M46.667 93.3335H306.667V906.667H46.667V93.3335Z" fill="#EB7400"/>
<path d="M46.667 93.3335H176.667V906.667H46.667V93.3335Z" fill="#00534E"/>
<path d="M353.333 93.3335H953.333V906.667H353.333V93.3335Z" fill="#8D153A"/>
<path d="M418.546 748.694C418.546 748.694 413.029 771.722 406.934 781.103C397.904 795.005 379.388 794 371.529 810.218C362.112 829.343 372.26 854.61 372.175 856.803L371.658 870.148C371.658 870.148 378.007 870.305 380.681 871.16C384.701 872.445 386.27 879.152 393.754 878.155C412.571 875.65 411.813 840.892 412.877 811.189C413.822 799.879 416.009 785.13 417.252 773.824C418.318 764.127 418.546 748.694 418.546 748.694Z" fill="#FFBE29" stroke="black" stroke-width="2.096"/>
<path d="M559.185 804.104L562.976 799.833L564.597 804.113C566.758 809.815 572.737 809.75 576.703 803.982L579.737 799.572L582.277 803.982C585.616 809.781 591.853 809.787 595.835 804.003C598.623 799.95 599.012 799.869 600.855 802.952C601.954 804.79 605.177 806.882 608.018 807.602C613.134 808.898 613.212 808.827 616.205 800.064C618.712 792.726 619.103 789.755 618.506 782.638C618.06 777.043 617.744 771.412 617.557 765.761C617.33 757.499 617.354 757.446 623.523 753.255C626.929 750.94 630.872 747.836 632.285 746.357C634.748 743.777 641.54 728.201 641.54 725.131C641.54 724.318 638.887 723.071 635.644 722.362C622.745 719.538 620.561 706.022 628.946 680.917C642.621 639.973 650.874 600.099 650.929 574.699C650.954 563.344 651.284 559.533 652.032 562.002C655.088 572.092 649.614 614.399 641.322 644.78L637.983 657.013L641.169 655.583C642.921 654.795 653.223 646.314 664.061 636.735C693.728 610.515 703.919 605.377 723.118 606.955C739.203 608.277 746.053 614.409 757.41 637.653C763.426 649.968 769.222 658.778 779.825 671.728C802.413 699.319 803.355 701.708 804.429 734.156C805.517 767.031 804.976 768.814 792.233 774.307C781.342 779.003 774.515 788.91 772.683 802.675C771.705 810.027 773.763 810.239 779.254 803.351L783.279 798.304L785.068 803.351C787.421 809.986 792.421 810.013 796.573 803.412L799.71 798.426L802.916 803.412C807.898 811.159 814.523 809.28 816.393 799.59C816.752 797.727 817.711 798.325 819.654 801.618C823.293 807.79 832.623 810.439 833.63 805.586C834.015 803.734 833.284 799.161 832.007 795.423C826.579 779.539 824.881 771.966 824.81 763.32C824.712 751.295 826.55 745.493 833.559 735.713C842.073 723.833 844.704 708.506 838.23 708.506C834.232 708.506 830.201 701.611 827.632 690.372C822.407 667.529 823.431 641.921 831.273 599.318C839.238 556.046 840.121 548.067 840.152 519.127C840.178 495.727 839.877 491.68 837.148 478.851C835.48 471.008 832.095 459.328 829.627 452.898L825.139 441.206L830.901 431.889C848.497 403.443 844.898 356.887 823.716 338.948C817.235 333.461 815.617 332.977 804.261 333.124C797.448 333.214 787.06 334.964 781.176 337.012C775.176 339.101 765.023 340.779 758.057 340.835C746.991 340.922 745.113 340.391 740.848 335.96C736.402 331.341 735.639 329.149 734.769 318.473C734.59 316.279 733.804 314.09 733.022 313.608C731.51 312.678 724.525 324.506 723.493 329.746C722.984 332.332 722.568 332.152 721.074 328.706C720.082 326.416 718.698 321.156 717.997 317.017C716.234 306.606 718.398 298.8 724.67 292.952L729.536 288.415L726.667 284.941C720.746 277.771 710.679 282.676 707.038 294.503C706.008 297.848 704.885 300.592 704.541 300.599C704.198 300.606 702.241 297.415 700.19 293.507C692.547 278.932 695.175 257.367 705.4 250.783C710.853 247.272 715.677 249.95 716.681 257.045C718.213 267.876 722.978 253.639 722.123 240.781C721.555 232.233 721.64 231.936 724.672 231.936C728.887 231.936 737.86 242.732 740.635 251.144C743.857 260.914 743.623 276.298 740.076 287.765L737.291 296.767L740.934 295.343C746.276 293.256 751.466 286.782 754.092 278.93C756.868 270.63 757.166 254.467 754.705 245.746C752.32 237.294 752.593 235.951 756.12 238.807C762.118 243.666 765.324 249.023 767.729 258.205C769.895 266.475 770.016 268.53 768.843 277.137C768.12 282.446 766.51 289.433 765.265 292.662C763.329 297.69 763.263 298.532 764.805 298.532C767.68 298.532 773.681 293.224 775.813 288.796C776.89 286.56 778.46 281.052 779.302 276.556L780.833 268.384L782.593 274.613C785.081 283.422 789.917 291.35 795.814 296.283C802.156 301.588 804.797 301.889 801.481 296.925C799.244 293.578 795.123 269.981 796.372 267.673C797.106 266.315 805.717 279.244 815.549 296.467C824.85 312.759 830.694 318.096 839.236 318.096C850.148 318.096 856.501 299.56 851.597 282.034C848.737 271.815 842.367 270.396 838.643 279.148C836.93 283.171 836.46 286.373 836.962 290.594C837.577 295.764 837.337 296.453 834.923 296.453C831.751 296.453 825.498 288.535 814.394 270.454C797.462 242.882 776.888 219.511 762.031 210.975C752.498 205.498 732.131 203.36 722.44 206.82C711.95 210.565 699.543 222.279 692.785 234.818C680.809 257.038 680.618 286.606 692.28 313.531L695.62 321.244L693.358 328.098C690.068 338.069 690.35 351.491 694.056 361.376C695.688 365.73 697.336 369.29 697.716 369.287C698.096 369.283 698.513 366.485 698.642 363.067C698.969 354.418 700.871 348.625 704.136 346.33C707.077 344.263 708.978 345.239 722.442 355.728C736.607 366.76 759.903 367.519 784.673 357.754C796.816 352.967 811.135 353.249 817.435 358.399C828.982 367.839 831.659 392.399 823.171 411.042C819.496 419.113 815.952 422.4 804.054 428.772C794.999 433.622 792.855 433.943 772.275 433.542C754.694 433.199 748.375 433.858 741.198 436.783C733.406 439.958 728.614 440.277 705.726 439.152L679.263 437.851L682.198 442.592C683.812 445.2 686.092 448.409 687.265 449.723C689.261 451.958 689.195 452.258 686.228 454.405C684.484 455.665 680.615 456.699 677.628 456.699H672.199L671.469 465.703C671.067 470.655 671.098 476.436 671.537 478.551C672.185 481.67 671.943 482.118 670.258 480.923C669.117 480.114 665.936 478.52 663.192 477.383C660.447 476.246 656.752 473.932 654.981 472.238C652.002 469.392 651.672 469.469 650.575 473.256C649.595 476.638 640.398 489.995 639.049 489.995C638.831 489.995 638.55 487.419 638.424 484.271C638.299 481.123 636.972 472.929 635.476 466.061C633.981 459.194 632.419 451.701 632.006 449.412C631.382 445.959 631.1 445.782 630.348 448.372C629.85 450.089 629.122 454.771 628.732 458.778C628.341 462.784 626.955 469.292 625.652 473.239L623.283 480.417L621.773 474.279C620.151 467.69 617.458 460.858 616.484 460.858C616.155 460.858 615.594 462.966 615.239 465.54C614.495 470.918 608.11 485.831 606.551 485.831C605.977 485.831 605.507 481.617 605.507 476.465C605.507 471.313 605 467.1 604.381 467.1C603.761 467.1 603.254 468.432 603.254 470.061C603.254 474.022 597.801 485.829 595.972 485.829C595.174 485.829 593.89 487.234 593.119 488.95C591.109 493.426 589.464 492.798 590.309 487.877C590.706 485.569 590.448 480.185 589.737 475.91L588.056 465.801C587.788 464.183 585.833 464.612 581.698 467.2C575.015 471.381 572.775 470.641 576.211 465.387C577.468 463.466 579.379 456.816 580.458 450.605C581.538 444.394 583.131 438.886 583.998 438.362C585.212 437.627 585.147 438.535 583.716 442.31C582.694 445.007 581.855 448.643 581.851 450.391C581.846 452.139 581.078 456.285 580.141 459.602C579.204 462.92 578.617 465.963 578.833 466.365C579.05 466.767 581.592 464.88 584.484 462.177L589.74 457.259L589.762 461.657C589.774 464.077 590.407 470.461 591.169 475.842L592.556 485.629L596.133 482.42C599.79 479.14 603.253 467.449 603.253 458.384C603.253 453.902 604.568 454.591 605.107 459.353C605.265 460.751 606.09 465.997 606.942 471.009L608.489 480.126L610.938 474.369C612.285 471.205 613.975 464.995 614.692 460.571C615.937 452.893 617.891 449.59 617.891 455.167C617.891 459.185 623.51 473.597 624.595 472.359C625.119 471.76 626.162 466.351 626.913 460.339C628.476 447.834 630.996 439.331 632.598 441.16C633.201 441.847 633.434 443.183 633.119 444.126C632.803 445.07 634.097 453.2 635.996 462.192L640.23 482.311C640.923 485.642 641.549 485.159 645.617 478.149C648.148 473.786 650.446 468.902 650.722 467.296C651.141 464.868 651.705 464.956 654.072 467.824C657.383 471.832 668.512 478.291 669.371 476.703C669.693 476.107 670.024 470.404 670.104 464.028L670.252 452.435L673.452 453.729C675.213 454.442 678.914 454.398 681.677 453.631L686.702 452.238L682.224 446.242C679.761 442.945 677.271 438.679 676.69 436.761C676.072 434.718 673.879 432.984 671.397 432.572C664.688 431.458 652.797 418.446 652.797 412.215C652.797 411.046 654.444 413.034 656.457 416.634C660.922 424.621 667.126 429.634 672.544 429.634H676.598L674.09 423.125C672.649 419.386 671.357 412.293 671.054 406.457C670.571 397.156 670.067 395.678 665.09 388.926C662.1 384.87 658.398 378.791 656.862 375.418L654.069 369.283L652.643 376.567C651.86 380.573 650.902 383.85 650.515 383.85C650.128 383.85 648.621 381.508 647.167 378.647C645.713 375.786 644.23 373.454 643.873 373.468C643.517 373.482 642.228 377.335 641.01 382.033L638.795 390.573L637.083 385.651C636.142 382.942 633.918 378.152 632.141 375.004C630.365 371.856 629.431 369.28 630.065 369.28C630.699 369.28 632.892 372.559 634.937 376.567L638.657 383.853L640.17 378.515C641.068 375.347 641.405 370.48 640.998 366.546C640.404 360.81 640.488 360.478 641.615 364.077C642.331 366.366 644.507 370.755 646.45 373.83L649.982 379.421L652.42 370.709C654.845 362.039 654.863 362.022 655.966 367.199C657.442 374.125 668.123 391.21 677.217 401.193C678.619 402.732 678.027 397.441 675.439 385.274C674.754 382.051 674.193 376.243 674.193 372.365C674.193 366.612 673.343 364.052 669.572 358.453C664.129 350.371 662.368 344.623 661.343 331.582C660.927 326.299 659.975 320.424 659.226 318.527C658.116 315.71 657.932 317.287 658.229 327.092C658.429 333.7 657.989 341.916 657.25 345.349L655.907 351.593L654.869 346.39C654.297 343.529 651.772 338.551 649.257 335.331C646.742 332.11 644.976 328.935 645.333 328.273C645.691 327.611 648.279 330.547 651.084 334.796C655.358 341.268 656.299 341.969 656.891 339.118C657.587 335.768 656.891 321.195 655.547 311.011C654.877 305.926 654.935 305.953 658.15 312.226C660.521 316.852 661.832 322.371 662.847 331.996C664.138 344.226 664.788 346.262 670.584 356.191C674.064 362.154 677.092 366.697 677.314 366.288C677.535 365.879 677.974 350.454 678.289 332.011C678.894 296.645 678.21 288.23 673.846 277.303L671.603 271.688L675.128 264.267C679.728 254.587 681.839 246.827 682.755 236.242L683.5 227.629L679.521 234.982C676.264 241.003 674.708 242.335 670.935 242.335C667.198 242.335 665.739 241.114 663.221 235.878C660.2 229.596 654.847 223.553 649.7 220.611C647.798 219.525 647.166 219.998 647.166 222.508C647.166 224.348 646.115 229.657 644.832 234.309L642.498 242.765L637.607 233.331C634.607 227.545 631.047 223.041 628.399 221.683C621.632 218.211 621.266 218.556 621.266 228.393C621.266 243.314 618.001 246.094 612.125 236.177C607.646 228.617 603.931 226.973 595.437 228.794L588.877 230.2L590.057 235.979C591.043 240.806 590.821 242.838 588.708 248.321C585.282 257.213 580.828 261.065 573.97 261.065C570.812 261.065 566.859 262.341 565.187 263.899C563.515 265.456 559.359 267.254 555.953 267.89C552.546 268.526 548.916 269.662 547.884 270.413C546.271 271.589 546.094 270.62 546.614 263.459C547.41 252.5 543.487 244.416 537.372 244.416C529.44 244.416 525.781 258.261 528.888 276.526C529.561 280.579 530.141 284.689 530.626 288.844C530.997 292.226 534.571 301.201 538.947 309.747C543.166 317.984 547.152 326.554 547.807 328.792C548.462 331.03 550.625 334.623 552.615 336.775L556.234 340.688L555.756 333.133C555.232 324.83 556.159 323.528 558.422 329.386C559.232 331.48 561.287 334.866 562.99 336.909C565.673 340.128 566.087 340.192 566.087 337.397C566.087 335.624 566.634 331.536 567.303 328.314L568.519 322.456L570.627 330.426C571.787 334.81 575.559 344.774 579.01 352.568C585.705 367.692 589.783 384.592 587.678 388.481C586.824 390.059 584.516 389.937 579.731 388.06C576.022 386.606 571.436 385.837 569.538 386.351C565.662 387.404 565.357 386.426 567.74 380.602C570.256 374.454 569.856 373.441 564.913 373.441C559.195 373.441 544.998 368.092 539.548 363.884C534.25 359.792 533.027 360.81 531.467 370.619L528.611 388.393L527.031 398.14L532.764 397.063C535.918 396.47 539.973 395.123 541.777 394.069C543.581 393.015 545.22 392.455 545.42 392.824C545.62 393.192 544.815 397.002 543.634 401.288L541.484 409.08L545.058 407.658C547.024 406.876 549.982 404.962 551.631 403.406C554.5 400.698 554.731 400.894 556.994 407.983C559.778 416.702 562.004 416.344 562.498 407.097C563.009 397.539 564.62 398.953 567.652 411.619C570.566 423.798 573.598 428.098 574.181 420.879C574.375 418.482 575.945 414.58 577.67 412.208C581.161 407.409 583.791 408.85 585.299 416.383C586.86 424.18 583.379 432.219 573.252 444.197C552.966 468.192 541.175 501.01 537.809 542.838C534.773 580.567 544.255 619.553 563.28 647.555C572.384 660.955 586.847 675.098 585.927 669.702C582.025 646.784 582.153 603.055 586.145 595.678C586.744 594.572 586.538 599.133 585.687 605.818C582.517 630.716 583.893 650.555 592.019 697.052C599.368 739.106 598.351 757.078 587.95 768.959C584.61 772.773 582.458 773.403 573.477 773.191C563.731 772.96 562.67 773.342 559.541 778.207C556.507 782.925 552.574 798.411 552.574 805.638C552.574 809.553 554.802 809.036 559.181 804.103L559.185 804.104ZM717.377 803.256L721.465 798.129L724.239 803.256C727.874 809.972 732.131 809.823 735.626 802.854C737.151 799.813 738.52 797.705 738.668 798.172C739.179 799.834 739.682 801.504 740.18 803.181C741.043 806.08 742.82 807.536 746.025 807.977C749.888 808.508 750.925 807.78 752.46 803.451L754.289 798.291L758.314 803.337C769.331 817.156 775.202 802.659 770.278 773.792C767.774 759.114 769.151 750.862 777.22 732.18C780.623 724.303 783.41 715.895 783.413 713.495C783.413 709.67 782.783 709.158 778.255 709.332C773.922 709.5 772.654 708.593 770.373 703.693C766.663 695.723 766.883 686.597 771.03 676.467L774.343 668.376L768.465 660.592C765.232 656.311 759.402 646.182 755.508 638.082C746.765 619.892 738.169 611.267 726.833 609.31L719.232 607.998L719.244 619.225C719.258 633.678 722.734 647.582 732.222 671.132C743.009 697.908 743.763 702.054 744.2 737.052L744.57 766.651L741.448 772.431C738.627 777.652 737.355 778.319 728.253 779.344C719.587 780.32 717.767 781.192 715.224 785.587C711.847 791.425 710.837 794.601 709.795 802.664C709.187 807.363 709.433 808.388 711.17 808.388C712.335 808.388 715.126 806.08 717.375 803.261L717.377 803.256ZM487.264 717.629C487.264 713.887 488.121 712.888 492.335 711.72L497.406 710.315L494.024 705.056C490.006 698.808 489.634 693.927 493.176 693.916C496.703 693.916 502.677 686.768 503.584 681.48C504.006 679.023 503.741 675.739 502.984 674.053C501.007 669.649 497.289 670.314 496.599 675.193C495.857 680.438 494.614 680.452 491.797 675.246C487.559 667.414 487.464 651.201 491.6 641.761C493.55 637.312 493.533 637.02 491.047 632.428C488.374 627.486 486.464 617.707 487.72 615.385C488.12 614.647 490.232 615.236 492.414 616.694C495.515 618.766 496.739 618.798 498.016 616.838C501.886 610.904 497.694 603.272 491.488 604.956C488.991 605.633 487.959 604.956 487.6 602.427C487.329 600.51 485.144 598.007 482.683 596.793C478.286 594.625 478.254 594.65 478.254 600.562C478.254 607.041 476.359 608.263 472.757 604.107C469.831 600.73 466.993 603.352 466.993 609.432C466.993 615.105 469.916 617.904 475.157 617.245C479.176 616.739 479.326 622.572 475.508 630.957L472.763 636.986L474.938 643.083C478.159 652.113 477.887 667.109 474.369 674.557L471.61 680.396L469.801 675.714C467.286 669.206 463.846 669.642 462.903 676.588C462.286 681.136 462.796 683.215 465.714 688.034C467.675 691.273 470.539 693.922 472.078 693.922C475.885 693.922 475.737 699.765 471.779 705.669L468.682 710.288L473.468 711.737C476.1 712.535 478.253 714.033 478.253 715.068C478.253 719.037 479.493 731.082 482.636 731.384C485.443 731.653 487.197 723.324 487.262 717.634L487.264 717.629ZM547.828 674.049C552.176 670.705 561.586 655.155 561.586 651.313C561.586 650.105 558.988 644.531 555.814 638.925C549.134 627.13 541.867 607.265 539.984 595.651C539.002 589.595 534.258 579.228 520.895 553.938L503.113 520.284L497.988 522.818C495.17 524.211 491.731 525.385 490.346 525.426C487.96 525.497 488.004 525.764 491.176 530.556L494.523 535.611L499.215 530.529C503.764 525.602 503.926 525.572 504.487 529.536C504.816 531.857 504.107 535.879 502.85 538.834C501.63 541.698 500.936 544.946 501.306 546.054C501.676 547.162 500.505 549.475 498.703 551.198C495.364 554.388 493.046 564.894 495.681 564.894C498.052 564.894 503.279 552.307 502.677 548.05C502.369 545.869 502.518 543.628 503.009 543.068C505.044 540.743 504.918 550.624 502.849 555.484C501.63 558.349 500.936 561.597 501.305 562.705C501.675 563.813 500.504 566.126 498.702 567.848C495.385 571.018 493.044 581.544 495.656 581.544C498.216 581.544 503.358 569.518 502.721 565.018C502.388 562.664 502.517 560.278 503.008 559.718C504.379 558.152 505.119 565.953 503.961 569.774C503.341 571.823 503.346 574.617 503.976 576.834C505.115 580.849 503.96 588.561 501.861 590.957C500.962 591.984 501.57 594.002 503.752 597.216C506.91 601.869 506.971 602.358 506.971 622.891C506.971 640.051 507.326 644.48 508.941 647.466C510.754 650.818 510.912 650.831 510.912 647.616C510.912 644.105 514.07 639.813 516.654 639.813C517.416 639.813 522.178 647.687 527.234 657.312C532.323 666.995 537.646 675.234 539.154 675.758L542.76 676.99C543.244 677.146 545.524 675.824 547.827 674.053L547.828 674.049ZM493.46 591.034C493.46 585.502 487.612 579.598 480.618 578.066C474.971 576.83 474.878 576.9 474.878 582.405C474.878 586.961 475.766 588.753 479.664 592.066C485.927 597.387 493.459 596.824 493.459 591.034H493.46ZM499.869 590.525C502.721 585.475 504.072 579.467 502.357 579.467C500.383 579.467 495.145 588.639 495.145 592.096C495.145 597.491 496.118 597.167 499.869 590.525ZM493.79 574.166C494.032 571.045 493.042 568.961 490.077 566.348C483.68 560.711 476.032 558.099 474.191 560.925C470.798 566.128 473.058 573.114 478.541 574.37C480.748 574.875 483.742 576.189 485.192 577.288C489.406 580.482 493.413 579.026 493.79 574.164V574.166ZM493.79 557.451C494.134 552.998 492.675 551.405 480.765 543.225C471.873 537.118 467.936 539.998 470.778 550.532C471.768 554.201 473.43 555.878 477.156 556.967C479.927 557.777 483.715 559.36 485.573 560.487C490.537 563.494 493.405 562.435 493.79 557.453V557.451ZM499.756 541.788C501.553 538.233 503.023 534.038 503.023 532.465C503.023 527.364 495.926 536.388 495.02 542.64C493.935 550.139 495.694 549.821 499.756 541.788ZM493.79 540.736C494.182 535.664 489.859 531.084 481.36 527.564C475.124 524.981 472.373 526.446 472.84 532.102C473.095 535.189 475.171 537.444 481.064 541.033C490.493 546.775 493.329 546.709 493.79 540.738V540.736ZM502.103 517.131C512.995 507.671 513.937 483.811 503.667 477.548C499.402 474.946 496.681 476.348 495.048 481.985C493.799 486.301 494.634 494.149 496.344 494.149C496.921 494.149 497.394 495.602 497.394 497.377C497.394 505.661 480.765 509.415 473.945 502.67C471.55 500.301 470.506 494.149 472.5 494.149C473.99 494.149 475.02 487.882 474.259 483.448C473.222 477.409 470.103 475.316 465.578 477.624C455.369 482.834 455.656 506.243 466.05 516.177C474.573 524.323 493.258 524.818 502.104 517.133L502.103 517.131ZM495.329 498.787C495.96 497.621 495.686 495.829 494.628 494.209C492.312 490.657 492.436 485.374 494.976 479.328C496.883 474.787 497.121 467.992 497.778 399.445C498.909 281.318 503.411 192.467 509.344 171.153C511.706 162.666 511.374 162.632 505.271 170.737C497.408 181.177 491.421 194.771 486.116 214.232C476.102 250.973 472.622 300.404 472.622 405.921C472.622 465.832 472.831 473.67 474.579 479.302C476.24 484.651 476.329 486.628 475.162 492.34C474.405 496.043 474.063 499.583 474.399 500.206C476.635 504.338 492.924 503.242 495.328 498.797L495.329 498.787ZM586.839 386.143C587.18 385.123 586.426 379.973 585.164 374.697C583.195 366.471 582.403 365.105 579.598 365.105C570.813 365.105 556.692 357.445 542.133 344.783C533.725 337.47 530.822 335.79 529.814 337.654C527.241 342.407 531.516 353.692 538.138 359.623C544.011 364.885 560.43 371.35 567.92 371.35C572.266 371.35 572.368 371.732 569.895 378.707L568.077 383.837L572.992 384.083C575.696 384.218 579.427 385.043 581.285 385.917C586.111 388.186 586.156 388.188 586.84 386.143H586.839Z" fill="#FFBE29" stroke="black" stroke-width="5.73113"/>
<path d="M638.155 439.377C638.155 436.324 633.56 428.049 628.904 422.718C625.247 418.531 624.644 418.404 624.635 421.818C624.623 427.002 622.26 440.028 621.332 440.028C620.809 440.028 620.036 437.483 619.613 434.372C619.191 431.262 617.418 425.131 615.675 420.747L612.504 412.778L610.035 420.162C607.733 427.045 603.747 433.785 601.977 433.785C601.555 433.785 601.472 430.16 601.794 425.73C602.143 420.917 601.874 417.099 601.123 416.242C600.433 415.455 599.869 415.729 599.869 416.853C599.869 419.446 594.332 431.703 593.16 431.703C592.678 431.703 592.002 428.19 591.659 423.899L590.362 408.811C589.992 404.804 590.78 407.521 592.114 414.849L594.539 428.17L597.198 420.052C598.661 415.587 599.86 410.708 599.862 409.21C599.865 407.711 600.36 407.048 600.962 407.735C601.563 408.422 602.4 413.79 602.822 419.661L603.588 430.339L606.514 424.078C608.124 420.635 610.009 416.026 610.705 413.836C611.946 409.926 612.016 409.929 614.484 414.015C615.868 416.305 617.994 421.781 619.21 426.183C620.425 430.585 621.584 433.863 621.782 433.466C621.98 433.069 622.426 428.53 622.772 423.379L623.459 413.59C623.631 412.313 632.272 423.274 635.47 428.825C637.525 432.392 639.476 434.812 639.807 434.201C640.137 433.59 640.407 428.328 640.407 422.505C640.407 413.483 639.917 411.064 637.089 406.131C633.837 400.46 633.746 400.428 632.545 404.577C630.986 409.961 629.147 410.04 629.147 404.721C629.147 400.84 623.002 385.919 621.404 385.919C620.989 385.919 619.695 389.196 618.528 393.202C617.361 397.209 616.105 400.482 615.738 400.477C614.162 400.458 605.499 381.612 605.504 378.21C605.504 375.503 606.087 376.195 607.606 380.714C608.76 384.149 611.066 389.274 612.728 392.106C616.096 397.84 617.321 396.445 618.621 385.396C618.991 382.248 619.635 379.672 620.051 379.672C621.491 379.672 629.031 395.301 630.092 400.484L631.156 405.687L631.963 399.963C632.949 392.965 634.037 392.705 635.611 399.091C636.269 401.758 639.518 407.304 642.83 411.416L648.853 418.891L650.062 411.373C650.727 407.238 651.607 404.862 652.019 406.092C652.633 407.929 651.067 420.386 649.886 423.065C649.709 423.468 647.757 421.248 645.549 418.136L641.534 412.476L641.519 422.609C641.507 428.182 641.198 434.849 640.824 437.423C640.093 442.458 638.155 443.875 638.155 439.373V439.377ZM608.127 358.601C600.97 346.938 599.882 344.27 600.041 338.743L600.209 332.86L600.676 338.543C600.95 341.861 602.856 346.833 605.258 350.493L609.373 356.762L611.902 351.055C613.293 347.915 614.449 344.177 614.471 342.747C614.529 339.017 614.873 339.329 619.719 347.535C624.026 354.825 624.093 354.861 624.733 350.137C625.089 347.503 624.963 342.545 624.451 339.118C623.044 329.7 623.319 328.28 625.452 333.96C626.514 336.79 628.222 340.79 629.247 342.85C631.031 346.436 631.141 346.392 631.804 341.81C632.186 339.178 632.505 334.36 632.513 331.104L632.529 325.185L636.412 333.773C640.038 341.795 640.372 342.091 641.479 338.268C642.131 336.018 642.672 330.603 642.681 326.235C642.693 320.593 642.997 319.169 643.733 321.317C644.961 324.905 644.108 334.672 641.841 342.996L640.213 348.969L638.077 342.477C635.345 334.173 634.435 334.308 632.682 343.267C631.025 351.735 629.948 352.38 628.334 345.869C627.289 341.655 627.09 342.171 626.348 351.023L625.524 360.86L620.586 353.381L615.648 345.903L613.428 350.827C612.207 353.536 611.191 356.923 611.17 358.353C611.125 361.454 609.937 361.551 608.126 358.601H608.127ZM671.8 315.159C669.195 310.579 667.4 306.208 667.812 305.447C668.223 304.687 668.686 304.468 668.842 304.964C668.998 305.459 671.127 309.829 673.575 314.675C679.211 325.836 678.053 326.152 671.8 315.159ZM586.987 298.054C584.616 291.8 584.781 287.656 587.665 280.879C589.75 275.981 590.702 275.316 594.343 276.219C596.678 276.797 601.703 280.824 605.51 285.167C609.907 290.181 614.454 293.541 617.976 294.376C621.025 295.099 623.52 295.372 623.52 294.982C623.52 294.592 622.253 290.565 620.705 286.032C617.029 275.269 617.155 274.113 621.302 280.561C625.559 287.181 630.651 289.117 642.03 288.442L647.59 288.113L644.364 281.892C639.853 273.191 641.241 272.411 646.223 280.846C650.895 288.759 650.603 289.316 640.77 291.232C636.592 292.046 632.098 291.456 628.363 289.603C622.775 286.83 622.559 286.872 623.617 290.528C624.227 292.634 625.215 294.358 625.813 294.358C626.41 294.358 626.9 295.425 626.9 296.73C626.9 300.742 614.83 297.214 609.063 291.515C595.887 278.498 594.229 277.371 591.093 279.299C589.348 280.371 587.602 283.512 587 286.66C584.992 297.159 592.623 305.322 595.77 296.039C596.682 293.35 596.469 291.508 594.866 288.235C592.67 283.752 592.876 283.112 595.84 285.214C597.944 286.706 598.227 296.565 596.269 300.183C594.029 304.322 588.918 303.15 586.987 298.054ZM638.886 272.124C637.238 269.08 638.53 268.333 645.916 268.065C655.054 267.732 660.604 264.761 667.152 256.694C672.399 250.23 673.822 251.503 668.841 258.204C664.298 264.318 657.213 269.017 650.371 270.454C647.059 271.15 643.284 272.114 641.982 272.596C640.68 273.078 639.287 272.866 638.886 272.122V272.124Z" fill="black" stroke="black" stroke-width="5.73113"/>
<path d="M559.185 804.104L562.976 799.833L564.597 804.113C566.758 809.815 572.737 809.75 576.703 803.982L579.737 799.572L582.277 803.982C585.616 809.781 591.853 809.787 595.835 804.003C598.623 799.95 599.012 799.869 600.855 802.952C601.954 804.79 605.177 806.882 608.018 807.602C613.134 808.898 613.212 808.827 616.205 800.064C618.712 792.726 619.103 789.755 618.506 782.638C618.06 777.043 617.744 771.412 617.557 765.761C617.33 757.499 617.354 757.446 623.523 753.255C626.929 750.94 630.872 747.836 632.285 746.357C634.748 743.777 641.54 728.201 641.54 725.131C641.54 724.318 638.887 723.071 635.644 722.362C622.745 719.538 620.561 706.022 628.946 680.917C642.621 639.973 650.874 600.099 650.929 574.699C650.954 563.344 651.284 559.533 652.032 562.002C655.088 572.092 649.614 614.399 641.322 644.78L637.983 657.013L641.169 655.583C642.921 654.795 653.223 646.314 664.061 636.735C693.728 610.515 703.919 605.377 723.118 606.955C739.203 608.277 746.053 614.409 757.41 637.653C763.426 649.968 769.222 658.778 779.825 671.728C802.413 699.319 803.355 701.708 804.429 734.156C805.517 767.031 804.976 768.814 792.233 774.307C781.342 779.003 774.515 788.91 772.683 802.675C771.705 810.027 773.763 810.239 779.254 803.351L783.279 798.304L785.068 803.351C787.421 809.986 792.421 810.013 796.573 803.412L799.71 798.426L802.916 803.412C807.898 811.159 814.523 809.28 816.393 799.59C816.752 797.727 817.711 798.325 819.654 801.618C823.293 807.79 832.623 810.439 833.63 805.586C834.015 803.734 833.284 799.161 832.007 795.423C826.579 779.539 824.881 771.966 824.81 763.32C824.712 751.295 826.55 745.493 833.559 735.713C842.073 723.833 844.704 708.506 838.23 708.506C834.232 708.506 830.201 701.611 827.632 690.372C822.407 667.529 823.431 641.921 831.273 599.318C839.238 556.046 840.121 548.067 840.152 519.127C840.178 495.727 839.877 491.68 837.148 478.851C835.48 471.008 832.095 459.328 829.627 452.898L825.139 441.206L830.901 431.889C848.497 403.443 844.898 356.887 823.716 338.948C817.235 333.461 815.617 332.977 804.261 333.124C797.448 333.214 787.06 334.964 781.176 337.012C775.176 339.101 765.023 340.779 758.057 340.835C746.991 340.922 745.113 340.391 740.848 335.96C736.402 331.341 735.639 329.149 734.769 318.473C734.59 316.279 733.804 314.09 733.022 313.608C731.51 312.678 724.525 324.506 723.493 329.746C722.984 332.332 722.568 332.152 721.074 328.706C720.082 326.416 718.698 321.156 717.997 317.017C716.234 306.606 718.398 298.8 724.67 292.952L729.536 288.415L726.667 284.941C720.746 277.771 710.679 282.676 707.038 294.503C706.008 297.848 704.885 300.592 704.541 300.599C704.198 300.606 702.241 297.415 700.19 293.507C692.547 278.932 695.175 257.367 705.4 250.783C710.853 247.272 715.677 249.95 716.681 257.045C718.213 267.876 722.978 253.639 722.123 240.781C721.555 232.233 721.64 231.936 724.672 231.936C728.887 231.936 737.86 242.732 740.635 251.144C743.857 260.914 743.623 276.298 740.076 287.765L737.291 296.767L740.934 295.343C746.276 293.256 751.466 286.782 754.092 278.93C756.868 270.63 757.166 254.467 754.705 245.746C752.32 237.294 752.593 235.951 756.12 238.807C762.118 243.666 765.324 249.023 767.729 258.205C769.895 266.475 770.016 268.53 768.843 277.137C768.12 282.446 766.51 289.433 765.265 292.662C763.329 297.69 763.263 298.532 764.805 298.532C767.68 298.532 773.681 293.224 775.813 288.796C776.89 286.56 778.46 281.052 779.302 276.556L780.833 268.384L782.593 274.613C785.081 283.422 789.917 291.35 795.814 296.283C802.156 301.588 804.797 301.889 801.481 296.925C799.244 293.578 795.123 269.981 796.372 267.673C797.106 266.315 805.717 279.244 815.549 296.467C824.85 312.759 830.694 318.096 839.236 318.096C850.148 318.096 856.501 299.56 851.597 282.034C848.737 271.815 842.367 270.396 838.643 279.148C836.93 283.171 836.46 286.373 836.962 290.594C837.577 295.764 837.337 296.453 834.923 296.453C831.751 296.453 825.498 288.535 814.394 270.454C797.462 242.882 776.888 219.511 762.031 210.975C752.498 205.498 732.131 203.36 722.44 206.82C711.95 210.565 699.543 222.279 692.785 234.818C680.809 257.038 680.618 286.606 692.28 313.531L695.62 321.244L693.358 328.098C690.068 338.069 690.35 351.491 694.056 361.376C695.688 365.73 697.336 369.29 697.716 369.287C698.096 369.283 698.513 366.485 698.642 363.067C698.969 354.418 700.871 348.625 704.136 346.33C707.077 344.263 708.978 345.239 722.442 355.728C736.607 366.76 759.903 367.519 784.673 357.754C796.816 352.967 811.135 353.249 817.435 358.399C828.982 367.839 831.659 392.399 823.171 411.042C819.496 419.113 815.952 422.4 804.054 428.772C794.999 433.622 792.855 433.943 772.275 433.542C754.694 433.199 748.375 433.858 741.198 436.783C733.406 439.958 728.614 440.277 705.726 439.152L679.263 437.851L682.198 442.592C683.812 445.2 686.092 448.409 687.265 449.723C689.261 451.958 689.195 452.258 686.228 454.405C684.484 455.665 680.615 456.699 677.628 456.699H672.199L671.469 465.703C671.067 470.655 671.098 476.436 671.537 478.551C672.185 481.67 671.943 482.118 670.258 480.923C669.117 480.114 665.936 478.52 663.192 477.383C660.447 476.246 656.752 473.932 654.981 472.238C652.002 469.392 651.672 469.469 650.575 473.256C649.595 476.638 640.398 489.995 639.049 489.995C638.831 489.995 638.55 487.419 638.424 484.271C638.299 481.123 636.972 472.929 635.476 466.061C633.981 459.194 632.419 451.701 632.006 449.412C631.382 445.959 631.1 445.782 630.348 448.372C629.85 450.089 629.122 454.771 628.732 458.778C628.341 462.784 626.955 469.292 625.652 473.239L623.283 480.417L621.773 474.279C620.151 467.69 617.458 460.858 616.484 460.858C616.155 460.858 615.594 462.966 615.239 465.54C614.495 470.918 608.11 485.831 606.551 485.831C605.977 485.831 605.507 481.617 605.507 476.465C605.507 471.313 605 467.1 604.381 467.1C603.761 467.1 603.254 468.432 603.254 470.061C603.254 474.022 597.801 485.829 595.972 485.829C595.174 485.829 593.89 487.234 593.119 488.95C591.109 493.426 589.464 492.798 590.309 487.877C590.706 485.569 590.448 480.185 589.737 475.91L588.056 465.801C587.788 464.183 585.833 464.612 581.698 467.2C575.015 471.381 572.775 470.641 576.211 465.387C577.468 463.466 579.379 456.816 580.458 450.605C581.538 444.394 583.131 438.886 583.998 438.362C585.212 437.627 585.147 438.535 583.716 442.31C582.694 445.007 581.855 448.643 581.851 450.391C581.846 452.139 581.078 456.285 580.141 459.602C579.204 462.92 578.617 465.963 578.833 466.365C579.05 466.767 581.592 464.88 584.484 462.177L589.74 457.259L589.762 461.657C589.774 464.077 590.407 470.461 591.169 475.842L592.556 485.629L596.133 482.42C599.79 479.14 603.253 467.449 603.253 458.384C603.253 453.902 604.568 454.591 605.107 459.353C605.265 460.751 606.09 465.997 606.942 471.009L608.489 480.126L610.938 474.369C612.285 471.205 613.975 464.995 614.692 460.571C615.937 452.893 617.891 449.59 617.891 455.167C617.891 459.185 623.51 473.597 624.595 472.359C625.119 471.76 626.162 466.351 626.913 460.339C628.476 447.834 630.996 439.331 632.598 441.16C633.201 441.847 633.434 443.183 633.119 444.126C632.803 445.07 634.097 453.2 635.996 462.192L640.23 482.311C640.923 485.642 641.549 485.159 645.617 478.149C648.148 473.786 650.446 468.902 650.722 467.296C651.141 464.868 651.705 464.956 654.072 467.824C657.383 471.832 668.512 478.291 669.371 476.703C669.693 476.107 670.024 470.404 670.104 464.028L670.252 452.435L673.452 453.729C675.213 454.442 678.914 454.398 681.677 453.631L686.702 452.238L682.224 446.242C679.761 442.945 677.271 438.679 676.69 436.761C676.072 434.718 673.879 432.984 671.397 432.572C664.688 431.458 652.797 418.446 652.797 412.215C652.797 411.046 654.444 413.034 656.457 416.634C660.922 424.621 667.126 429.634 672.544 429.634H676.598L674.09 423.125C672.649 419.386 671.357 412.293 671.054 406.457C670.571 397.156 670.067 395.678 665.09 388.926C662.1 384.87 658.398 378.791 656.862 375.418L654.069 369.283L652.643 376.567C651.86 380.573 650.902 383.85 650.515 383.85C650.128 383.85 648.621 381.508 647.167 378.647C645.713 375.786 644.23 373.454 643.873 373.468C643.517 373.482 642.228 377.335 641.01 382.033L638.795 390.573L637.083 385.651C636.142 382.942 633.918 378.152 632.141 375.004C630.365 371.856 629.431 369.28 630.065 369.28C630.699 369.28 632.892 372.559 634.937 376.567L638.657 383.853L640.17 378.515C641.068 375.347 641.405 370.48 640.998 366.546C640.404 360.81 640.488 360.478 641.615 364.077C642.331 366.366 644.507 370.755 646.45 373.83L649.982 379.421L652.42 370.709C654.845 362.039 654.863 362.022 655.966 367.199C657.442 374.125 668.123 391.21 677.217 401.193C678.619 402.732 678.027 397.441 675.439 385.274C674.754 382.051 674.193 376.243 674.193 372.365C674.193 366.612 673.343 364.052 669.572 358.453C664.129 350.371 662.368 344.623 661.343 331.582C660.927 326.299 659.975 320.424 659.226 318.527C658.116 315.71 657.932 317.287 658.229 327.092C658.429 333.7 657.989 341.916 657.25 345.349L655.907 351.593L654.869 346.39C654.297 343.529 651.772 338.551 649.257 335.331C646.742 332.11 644.976 328.935 645.333 328.273C645.691 327.611 648.279 330.547 651.084 334.796C655.358 341.268 656.299 341.969 656.891 339.118C657.587 335.768 656.891 321.195 655.547 311.011C654.877 305.926 654.935 305.953 658.15 312.226C660.521 316.852 661.832 322.371 662.847 331.996C664.138 344.226 664.788 346.262 670.584 356.191C674.064 362.154 677.092 366.697 677.314 366.288C677.535 365.879 677.974 350.454 678.289 332.011C678.894 296.645 678.21 288.23 673.846 277.303L671.603 271.688L675.128 264.267C679.728 254.587 681.839 246.827 682.755 236.242L683.5 227.629L679.521 234.982C676.264 241.003 674.708 242.335 670.935 242.335C667.198 242.335 665.739 241.114 663.221 235.878C660.2 229.596 654.847 223.553 649.7 220.611C647.798 219.525 647.166 219.998 647.166 222.508C647.166 224.348 646.115 229.657 644.832 234.309L642.498 242.765L637.607 233.331C634.607 227.545 631.047 223.041 628.399 221.683C621.632 218.211 621.266 218.556 621.266 228.393C621.266 243.314 618.001 246.094 612.125 236.177C607.646 228.617 603.931 226.973 595.437 228.794L588.877 230.2L590.057 235.979C591.043 240.806 590.821 242.838 588.708 248.321C585.282 257.213 580.828 261.065 573.97 261.065C570.812 261.065 566.859 262.341 565.187 263.899C563.515 265.456 559.359 267.254 555.953 267.89C552.546 268.526 548.916 269.662 547.884 270.413C546.271 271.589 546.094 270.62 546.614 263.459C547.41 252.5 543.487 244.416 537.372 244.416C529.44 244.416 525.781 258.261 528.888 276.526C529.561 280.579 530.141 284.689 530.626 288.844C530.997 292.226 534.571 301.201 538.947 309.747C543.166 317.984 547.152 326.554 547.807 328.792C548.462 331.03 550.625 334.623 552.615 336.775L556.234 340.688L555.756 333.133C555.232 324.83 556.159 323.528 558.422 329.386C559.232 331.48 561.287 334.866 562.99 336.909C565.673 340.128 566.087 340.192 566.087 337.397C566.087 335.624 566.634 331.536 567.303 328.314L568.519 322.456L570.627 330.426C571.787 334.81 575.559 344.774 579.01 352.568C585.705 367.692 589.783 384.592 587.678 388.481C586.824 390.059 584.516 389.937 579.731 388.06C576.022 386.606 571.436 385.837 569.538 386.351C565.662 387.404 565.357 386.426 567.74 380.602C570.256 374.454 569.856 373.441 564.913 373.441C559.195 373.441 544.998 368.092 539.548 363.884C534.25 359.792 533.027 360.81 531.467 370.619L528.611 388.393L527.031 398.14L532.764 397.063C535.918 396.47 539.973 395.123 541.777 394.069C543.581 393.015 545.22 392.455 545.42 392.824C545.62 393.192 544.815 397.002 543.634 401.288L541.484 409.08L545.058 407.658C547.024 406.876 549.982 404.962 551.631 403.406C554.5 400.698 554.731 400.894 556.994 407.983C559.778 416.702 562.004 416.344 562.498 407.097C563.009 397.539 564.62 398.953 567.652 411.619C570.566 423.798 573.598 428.098 574.181 420.879C574.375 418.482 575.945 414.58 577.67 412.208C581.161 407.409 583.791 408.85 585.299 416.383C586.86 424.18 583.379 432.219 573.252 444.197C552.966 468.192 541.175 501.01 537.809 542.838C534.773 580.567 544.255 619.553 563.28 647.555C572.384 660.955 586.847 675.098 585.927 669.702C582.025 646.784 582.153 603.055 586.145 595.678C586.744 594.572 586.538 599.133 585.687 605.818C582.517 630.716 583.893 650.555 592.019 697.052C599.368 739.106 598.351 757.078 587.95 768.959C584.61 772.773 582.458 773.403 573.477 773.191C563.731 772.96 562.67 773.342 559.541 778.207C556.507 782.925 552.574 798.411 552.574 805.638C552.574 809.553 554.802 809.036 559.181 804.103L559.185 804.104ZM717.377 803.256L721.465 798.129L724.239 803.256C727.874 809.972 732.131 809.823 735.626 802.854C737.151 799.813 738.52 797.705 738.668 798.172C739.179 799.834 739.682 801.504 740.18 803.181C741.043 806.08 742.82 807.536 746.025 807.977C749.888 808.508 750.925 807.78 752.46 803.451L754.289 798.291L758.314 803.337C769.331 817.156 775.202 802.659 770.278 773.792C767.774 759.114 769.151 750.862 777.22 732.18C780.623 724.303 783.41 715.895 783.413 713.495C783.413 709.67 782.783 709.158 778.255 709.332C773.922 709.5 772.654 708.593 770.373 703.693C766.663 695.723 766.883 686.597 771.03 676.467L774.343 668.376L768.465 660.592C765.232 656.311 759.402 646.182 755.508 638.082C746.765 619.892 738.169 611.267 726.833 609.31L719.232 607.998L719.244 619.225C719.258 633.678 722.734 647.582 732.222 671.132C743.009 697.908 743.763 702.054 744.2 737.052L744.57 766.651L741.448 772.431C738.627 777.652 737.355 778.319 728.253 779.344C719.587 780.32 717.767 781.192 715.224 785.587C711.847 791.425 710.837 794.601 709.795 802.664C709.187 807.363 709.433 808.388 711.17 808.388C712.335 808.388 715.126 806.08 717.375 803.261L717.377 803.256ZM487.264 717.629C487.264 713.887 488.121 712.888 492.335 711.72L497.406 710.315L494.024 705.056C490.006 698.808 489.634 693.927 493.176 693.916C496.703 693.916 502.677 686.768 503.584 681.48C504.006 679.023 503.741 675.739 502.984 674.053C501.007 669.649 497.289 670.314 496.599 675.193C495.857 680.438 494.614 680.452 491.797 675.246C487.559 667.414 487.464 651.201 491.6 641.761C493.55 637.312 493.533 637.02 491.047 632.428C488.374 627.486 486.464 617.707 487.72 615.385C488.12 614.647 490.232 615.236 492.414 616.694C495.515 618.766 496.739 618.798 498.016 616.838C501.886 610.904 497.694 603.272 491.488 604.956C488.991 605.633 487.959 604.956 487.6 602.427C487.329 600.51 485.144 598.007 482.683 596.793C478.286 594.625 478.254 594.65 478.254 600.562C478.254 607.041 476.359 608.263 472.757 604.107C469.831 600.73 466.993 603.352 466.993 609.432C466.993 615.105 469.916 617.904 475.157 617.245C479.176 616.739 479.326 622.572 475.508 630.957L472.763 636.986L474.938 643.083C478.159 652.113 477.887 667.109 474.369 674.557L471.61 680.396L469.801 675.714C467.286 669.206 463.846 669.642 462.903 676.588C462.286 681.136 462.796 683.215 465.714 688.034C467.675 691.273 470.539 693.922 472.078 693.922C475.885 693.922 475.737 699.765 471.779 705.669L468.682 710.288L473.468 711.737C476.1 712.535 478.253 714.033 478.253 715.068C478.253 719.037 479.493 731.082 482.636 731.384C485.443 731.653 487.197 723.324 487.262 717.634L487.264 717.629ZM547.828 674.049C552.176 670.705 561.586 655.155 561.586 651.313C561.586 650.105 558.988 644.531 555.814 638.925C549.134 627.13 541.867 607.265 539.984 595.651C539.002 589.595 534.258 579.228 520.895 553.938L503.113 520.284L497.988 522.818C495.17 524.211 491.731 525.385 490.346 525.426C487.96 525.497 488.004 525.764 491.176 530.556L494.523 535.611L499.215 530.529C503.764 525.602 503.926 525.572 504.487 529.536C504.816 531.857 504.107 535.879 502.85 538.834C501.63 541.698 500.936 544.946 501.306 546.054C501.676 547.162 500.505 549.475 498.703 551.198C495.364 554.388 493.046 564.894 495.681 564.894C498.052 564.894 503.279 552.307 502.677 548.05C502.369 545.869 502.518 543.628 503.009 543.068C505.044 540.743 504.918 550.624 502.849 555.484C501.63 558.349 500.936 561.597 501.305 562.705C501.675 563.813 500.504 566.126 498.702 567.848C495.385 571.018 493.044 581.544 495.656 581.544C498.216 581.544 503.358 569.518 502.721 565.018C502.388 562.664 502.517 560.278 503.008 559.718C504.379 558.152 505.119 565.953 503.961 569.774C503.341 571.823 503.346 574.617 503.976 576.834C505.115 580.849 503.96 588.561 501.861 590.957C500.962 591.984 501.57 594.002 503.752 597.216C506.91 601.869 506.971 602.358 506.971 622.891C506.971 640.051 507.326 644.48 508.941 647.466C510.754 650.818 510.912 650.831 510.912 647.616C510.912 644.105 514.07 639.813 516.654 639.813C517.416 639.813 522.178 647.687 527.234 657.312C532.323 666.995 537.646 675.234 539.154 675.758L542.76 676.99C543.244 677.146 545.524 675.824 547.827 674.053L547.828 674.049ZM493.46 591.034C493.46 585.502 487.612 579.598 480.618 578.066C474.971 576.83 474.878 576.9 474.878 582.405C474.878 586.961 475.766 588.753 479.664 592.066C485.927 597.387 493.459 596.824 493.459 591.034H493.46ZM499.869 590.525C502.721 585.475 504.072 579.467 502.357 579.467C500.383 579.467 495.145 588.639 495.145 592.096C495.145 597.491 496.118 597.167 499.869 590.525ZM493.79 574.166C494.032 571.045 493.042 568.961 490.077 566.348C483.68 560.711 476.032 558.099 474.191 560.925C470.798 566.128 473.058 573.114 478.541 574.37C480.748 574.875 483.742 576.189 485.192 577.288C489.406 580.482 493.413 579.026 493.79 574.164V574.166ZM493.79 557.451C494.134 552.998 492.675 551.405 480.765 543.225C471.873 537.118 467.936 539.998 470.778 550.532C471.768 554.201 473.43 555.878 477.156 556.967C479.927 557.777 483.715 559.36 485.573 560.487C490.537 563.494 493.405 562.435 493.79 557.453V557.451ZM499.756 541.788C501.553 538.233 503.023 534.038 503.023 532.465C503.023 527.364 495.926 536.388 495.02 542.64C493.935 550.139 495.694 549.821 499.756 541.788ZM493.79 540.736C494.182 535.664 489.859 531.084 481.36 527.564C475.124 524.981 472.373 526.446 472.84 532.102C473.095 535.189 475.171 537.444 481.064 541.033C490.493 546.775 493.329 546.709 493.79 540.738V540.736ZM502.103 517.131C512.995 507.671 513.937 483.811 503.667 477.548C499.402 474.946 496.681 476.348 495.048 481.985C493.799 486.301 494.634 494.149 496.344 494.149C496.921 494.149 497.394 495.602 497.394 497.377C497.394 505.661 480.765 509.415 473.945 502.67C471.55 500.301 470.506 494.149 472.5 494.149C473.99 494.149 475.02 487.882 474.259 483.448C473.222 477.409 470.103 475.316 465.578 477.624C455.369 482.834 455.656 506.243 466.05 516.177C474.573 524.323 493.258 524.818 502.104 517.133L502.103 517.131ZM495.329 498.787C495.96 497.621 495.686 495.829 494.628 494.209C492.312 490.657 492.436 485.374 494.976 479.328C496.883 474.787 497.121 467.992 497.778 399.445C498.909 281.318 503.411 192.467 509.344 171.153C511.706 162.666 511.374 162.632 505.271 170.737C497.408 181.177 491.421 194.771 486.116 214.232C476.102 250.973 472.622 300.404 472.622 405.921C472.622 465.832 472.831 473.67 474.579 479.302C476.24 484.651 476.329 486.628 475.162 492.34C474.405 496.043 474.063 499.583 474.399 500.206C476.635 504.338 492.924 503.242 495.328 498.797L495.329 498.787ZM586.839 386.143C587.18 385.123 586.426 379.973 585.164 374.697C583.195 366.471 582.403 365.105 579.598 365.105C570.813 365.105 556.692 357.445 542.133 344.783C533.725 337.47 530.822 335.79 529.814 337.654C527.241 342.407 531.516 353.692 538.138 359.623C544.011 364.885 560.43 371.35 567.92 371.35C572.266 371.35 572.368 371.732 569.895 378.707L568.077 383.837L572.992 384.083C575.696 384.218 579.427 385.043 581.285 385.917C586.111 388.186 586.156 388.188 586.84 386.143H586.839Z" fill="#FFBE29"/>
<path d="M638.155 439.377C638.155 436.324 633.56 428.049 628.904 422.718C625.247 418.531 624.644 418.404 624.635 421.818C624.623 427.002 622.26 440.028 621.332 440.028C620.809 440.028 620.036 437.483 619.613 434.372C619.191 431.262 617.418 425.131 615.675 420.747L612.504 412.778L610.035 420.162C607.733 427.045 603.747 433.785 601.977 433.785C601.555 433.785 601.472 430.16 601.794 425.73C602.143 420.917 601.874 417.099 601.123 416.242C600.433 415.455 599.869 415.729 599.869 416.853C599.869 419.446 594.332 431.703 593.16 431.703C592.678 431.703 592.002 428.19 591.659 423.899L590.362 408.811C589.992 404.804 590.78 407.521 592.114 414.849L594.539 428.17L597.198 420.052C598.661 415.587 599.86 410.708 599.862 409.21C599.865 407.711 600.36 407.048 600.962 407.735C601.563 408.422 602.4 413.79 602.822 419.661L603.588 430.339L606.514 424.078C608.124 420.635 610.009 416.026 610.705 413.836C611.946 409.926 612.016 409.929 614.484 414.015C615.868 416.305 617.994 421.781 619.21 426.183C620.425 430.585 621.584 433.863 621.782 433.466C621.98 433.069 622.426 428.53 622.772 423.379L623.459 413.59C623.631 412.313 632.272 423.274 635.47 428.825C637.525 432.392 639.476 434.812 639.807 434.201C640.137 433.59 640.407 428.328 640.407 422.505C640.407 413.483 639.917 411.064 637.089 406.131C633.837 400.46 633.746 400.428 632.545 404.577C630.986 409.961 629.147 410.04 629.147 404.721C629.147 400.84 623.002 385.919 621.404 385.919C620.989 385.919 619.695 389.196 618.528 393.202C617.361 397.209 616.105 400.482 615.738 400.477C614.162 400.458 605.499 381.612 605.504 378.21C605.504 375.503 606.087 376.195 607.606 380.714C608.76 384.149 611.066 389.274 612.728 392.106C616.096 397.84 617.321 396.445 618.621 385.396C618.991 382.248 619.635 379.672 620.051 379.672C621.491 379.672 629.031 395.301 630.092 400.484L631.156 405.687L631.963 399.963C632.949 392.965 634.037 392.705 635.611 399.091C636.269 401.758 639.518 407.304 642.83 411.416L648.853 418.891L650.062 411.373C650.727 407.238 651.607 404.862 652.019 406.092C652.633 407.929 651.067 420.386 649.886 423.065C649.709 423.468 647.757 421.248 645.549 418.136L641.534 412.476L641.519 422.609C641.507 428.182 641.198 434.849 640.824 437.423C640.093 442.458 638.155 443.875 638.155 439.373V439.377ZM608.127 358.601C600.97 346.938 599.882 344.27 600.041 338.743L600.209 332.86L600.676 338.543C600.95 341.861 602.856 346.833 605.258 350.493L609.373 356.762L611.902 351.055C613.293 347.915 614.449 344.177 614.471 342.747C614.529 339.017 614.873 339.329 619.719 347.535C624.026 354.825 624.093 354.861 624.733 350.137C625.089 347.503 624.963 342.545 624.451 339.118C623.044 329.7 623.319 328.28 625.452 333.96C626.514 336.79 628.222 340.79 629.247 342.85C631.031 346.436 631.141 346.392 631.804 341.81C632.186 339.178 632.505 334.36 632.513 331.104L632.529 325.185L636.412 333.773C640.038 341.795 640.372 342.091 641.479 338.268C642.131 336.018 642.672 330.603 642.681 326.235C642.693 320.593 642.997 319.169 643.733 321.317C644.961 324.905 644.108 334.672 641.841 342.996L640.213 348.969L638.077 342.477C635.345 334.173 634.435 334.308 632.682 343.267C631.025 351.735 629.948 352.38 628.334 345.869C627.289 341.655 627.09 342.171 626.348 351.023L625.524 360.86L620.586 353.381L615.648 345.903L613.428 350.827C612.207 353.536 611.191 356.923 611.17 358.353C611.125 361.454 609.937 361.551 608.126 358.601H608.127ZM671.8 315.159C669.195 310.579 667.4 306.208 667.812 305.447C668.223 304.687 668.686 304.468 668.842 304.964C668.998 305.459 671.127 309.829 673.575 314.675C679.211 325.836 678.053 326.152 671.8 315.159ZM586.987 298.054C584.616 291.8 584.781 287.656 587.665 280.879C589.75 275.981 590.702 275.316 594.343 276.219C596.678 276.797 601.703 280.824 605.51 285.167C609.907 290.181 614.454 293.541 617.976 294.376C621.025 295.099 623.52 295.372 623.52 294.982C623.52 294.592 622.253 290.565 620.705 286.032C617.029 275.269 617.155 274.113 621.302 280.561C625.559 287.181 630.651 289.117 642.03 288.442L647.59 288.113L644.364 281.892C639.853 273.191 641.241 272.411 646.223 280.846C650.895 288.759 650.603 289.316 640.77 291.232C636.592 292.046 632.098 291.456 628.363 289.603C622.775 286.83 622.559 286.872 623.617 290.528C624.227 292.634 625.215 294.358 625.813 294.358C626.41 294.358 626.9 295.425 626.9 296.73C626.9 300.742 614.83 297.214 609.063 291.515C595.887 278.498 594.229 277.371 591.093 279.299C589.348 280.371 587.602 283.512 587 286.66C584.992 297.159 592.623 305.322 595.77 296.039C596.682 293.35 596.469 291.508 594.866 288.235C592.67 283.752 592.876 283.112 595.84 285.214C597.944 286.706 598.227 296.565 596.269 300.183C594.029 304.322 588.918 303.15 586.987 298.054ZM638.886 272.124C637.238 269.08 638.53 268.333 645.916 268.065C655.054 267.732 660.604 264.761 667.152 256.694C672.399 250.23 673.822 251.503 668.841 258.204C664.298 264.318 657.213 269.017 650.371 270.454C647.059 271.15 643.284 272.114 641.982 272.596C640.68 273.078 639.287 272.866 638.886 272.122V272.124Z" fill="black"/>
<path d="M888.165 748.88C888.165 748.88 893.677 771.875 899.767 781.243C908.789 795.125 927.289 794.122 935.141 810.318C944.549 829.417 934.411 854.647 934.496 856.837L935.012 870.162C935.012 870.162 928.668 870.318 925.997 871.172C921.98 872.455 920.413 879.152 912.935 878.157C894.133 875.657 894.892 840.946 893.828 811.286C892.883 799.991 890.698 785.267 889.457 773.975C888.393 764.293 888.165 748.88 888.165 748.88Z" fill="#FFBE29" stroke="black" stroke-width="2.094"/>
<path d="M888.126 251.287C888.126 251.287 893.641 228.262 899.736 218.882C908.766 204.982 927.28 205.987 935.138 189.77C944.554 170.648 934.407 145.385 934.492 143.192L935.009 129.85C935.009 129.85 928.66 129.693 925.986 128.838C921.967 127.553 920.399 120.848 912.916 121.843C894.1 124.347 894.858 159.1 893.794 188.8C892.849 200.108 890.662 214.853 889.42 226.158C888.355 235.853 888.127 251.285 888.127 251.285L888.126 251.287ZM418.546 251.307C418.546 251.307 413.029 228.278 406.934 218.897C397.904 204.995 379.388 206 371.529 189.782C362.112 170.657 372.26 145.39 372.175 143.197L371.658 129.852C371.658 129.852 378.008 129.695 380.681 128.84C384.701 127.555 386.27 120.848 393.754 121.845C412.571 124.35 411.813 159.108 412.877 188.812C413.822 200.122 416.009 214.87 417.252 226.177C418.318 235.873 418.546 251.308 418.546 251.308V251.307Z" fill="#FFBE29" stroke="black" stroke-width="2.096"/>
</g>
<defs>
<clipPath id="clip0_158_202">
<rect width="1000" height="1000" fill="white"/>
</clipPath>
</defs>
</svg>
